<?xml version="1.0" encoding="utf-8"?>
<!-- Generator: Adobe Illustrator 17.1.0, SVG Export Plug-In . SVG Version: 6.00 Build 0)  -->
<!DOCTYPE svg PUBLIC "-//W3C//DTD SVG 1.1//EN" "http://www.w3.org/Graphics/SVG/1.1/DTD/svg11.dtd">
<svg version="1.1" id="Layer_1" xmlns="http://www.w3.org/2000/svg" xmlns:xlink="http://www.w3.org/1999/xlink" x="0px" y="0px"
	 viewBox="728 801.1 400 400" enable-background="new 728 801.1 400 400" xml:space="preserve">
<path fill="#FFFFFF" d="M928,803.4c-108.1,0-196.6,88.5-196.6,196.6s88.5,196.6,196.6,196.6s196.6-88.5,196.6-196.6
	S1036.1,803.4,928,803.4z M976.6,1001.2h-32c0,51.1,0,114,0,114h-47.4c0,0,0-62.3,0-114h-22.5v-40.3h22.5v-26.1
	c0-18.7,8.9-47.8,47.8-47.8l35.1,0.1v39.1c0,0-21.3,0-25.5,0c-4.2,0-10,2.1-10,11v23.7h36.1L976.6,1001.2z"/>
</svg>
