<?xml version="1.0" encoding="utf-8"?>
<!-- Generator: Adobe Illustrator 17.1.0, SVG Export Plug-In . SVG Version: 6.00 Build 0)  -->
<!DOCTYPE svg PUBLIC "-//W3C//DTD SVG 1.1//EN" "http://www.w3.org/Graphics/SVG/1.1/DTD/svg11.dtd">
<svg version="1.1" id="Layer_1" xmlns="http://www.w3.org/2000/svg" xmlns:xlink="http://www.w3.org/1999/xlink" x="0px" y="0px"
	 viewBox="0 0 792 1002.7" style="enable-background:new 0 0 792 1002.7;" xml:space="preserve">
<g>
	<rect x="1" y="0" style="fill:none;" width="791" height="1002.7"/>
	<g>
		<rect x="78.9" y="77.9" style="fill:#FFC425;" width="635.2" height="847"/>
		<g>
			<g>
				<g>
					<g>
						<path d="M181.2,840.2c-0.4,0.9-1.1,2.6-2.5,4.3c-2,2.3-5.2,4.4-9.9,4.4c-7.6,0-13.4-5.6-13.4-15.1c0-9.7,6.3-15,13.6-15
							c8.9,0,11,6.8,11.7,8.8l-5.3,1.4c-0.1-0.5-0.3-1.7-1.1-2.8c-0.6-0.9-2.2-2.5-5.2-2.5c-4.7,0-7.9,3.9-7.9,10
							c0,6.5,3.4,10.1,7.9,10.1c2.7,0,4.3-1.3,5.5-2.8c0.9-1.2,1.3-2.3,1.5-3L181.2,840.2z M228.7,848.9c-3.6,0-6.9-1-9.9-4.4
							c-2.8-3.3-3.8-7-3.8-10.6c0-8.8,5.9-15.1,13.7-15.1c7.1,0,13.7,5.3,13.7,15C242.5,842.1,237.5,848.9,228.7,848.9z
							 M228.8,823.8c-4.9,0-8.2,4-8.2,9.9c0,6.4,3.6,10.3,8.3,10.3c3.6,0,8.1-2.6,8.3-9.5C237.3,828.9,234.4,823.8,228.8,823.8z
							 M305.3,819.6v28.6h-5.2l0.5-23.5l-6.2,23.5h-4.8l-6.2-23.5l0.5,23.5h-5.2v-28.6h7.8l5.6,21.2l5.5-21.2H305.3z M369.5,819.6
							v28.6h-5.2l0.5-23.5l-6.2,23.5h-4.8l-6.2-23.5l0.5,23.5h-5.2v-28.6h7.8l5.6,21.2l5.5-21.2H369.5z M412.5,819.6v28.6h-5.3
							v-28.6H412.5z M469,824.5h-7.9v23.8h-5.3v-23.8H448v-4.9h21V824.5z M523.1,824.5h-7.9v23.8h-5.3v-23.8H502v-4.9h21V824.5z
							 M563.6,824.4v6.7h13.8v4.6h-13.8v7.7h16.1v4.8h-21.4v-28.6h20.4v4.8H563.6z M620.2,824.4v6.7H634v4.6h-13.8v7.7h16.1v4.8
							h-21.4v-28.6h20.4v4.8H620.2z"/>
						<path d="M156.8,155.7h479.5v184.9H474.6l161.6,161.6v133h-133L341.6,473.6v161.6H156.8V155.7z"/>
						<path d="M162,674.2v28.6h-5.3v-28.6H162z M201.4,674.2h5.3v28.6H202l-12.5-20.1l0.3,20.1h-5.2v-28.6h4.8l12.7,20.2
							L201.4,674.2z M246.1,679h-7.9v23.8h-5.4V679h-7.7v-4.9h21V679z M269.6,678.9v6.7h13.8v4.6h-13.8v7.7h16.1v4.8h-21.4v-28.6
							h20.4v4.8H269.6z M305.7,674.2h9.1c3.8,0,6.4,0,8.9,2.1c1.8,1.5,3.2,3.7,3.2,7.1c0,5.5-4,7.4-5.6,7.9l6.4,11.6h-6.1l-5.7-10.6
							H311v10.6h-5.3V674.2z M311,678.8v9h1.9c1.8,0,2.5,0,3.5-0.1c1.2,0,5-0.2,5-4.4c0-0.6,0-2.7-2.3-3.8c-1.1-0.6-2.5-0.6-5.7-0.6
							H311z M364.6,674.2h5.3v28.6h-4.7l-12.5-20.1l0.3,20.1h-5.2v-28.6h4.8l12.7,20.2L364.6,674.2z M405.8,697.2H395l-1.7,5.6h-5.7
							l9.6-28.6h6.1l9.8,28.6h-5.7L405.8,697.2z M404.4,692.5l-3.9-13.2l-4,13.2H404.4z M446.4,679h-7.9v23.8h-5.4V679h-7.7v-4.9h21
							V679z M469.9,674.2v28.6h-5.3v-28.6H469.9z M503.1,703.5c-3.6,0-6.9-1-9.9-4.4c-2.8-3.3-3.8-7-3.8-10.6
							c0-8.8,5.9-15.1,13.7-15.1c7.1,0,13.7,5.3,13.7,15C516.8,696.7,511.9,703.5,503.1,703.5z M503.1,678.3c-4.9,0-8.2,4-8.2,9.9
							c0,6.4,3.6,10.3,8.3,10.3c3.6,0,8.2-2.6,8.3-9.5C511.6,683.5,508.7,678.3,503.1,678.3z M553.1,674.2h5.3v28.6h-4.7l-12.5-20.1
							l0.3,20.1h-5.2v-28.6h4.8l12.6,20.2L553.1,674.2z M594.2,697.2h-10.7l-1.7,5.6h-5.7l9.7-28.6h6.1l9.8,28.6h-5.7L594.2,697.2z
							 M592.8,692.5l-3.9-13.2l-4,13.2H592.8z M624.9,697.9h11.3v4.9h-16.7v-28.7h5.4V697.9z"/>
						<path d="M156.8,722.3h38.8c7.4,0,14.4,0.4,19.2,2.4c10.4,4.4,13.5,15,13.5,22.5c0,2.9-0.3,9.8-6,15.6c-3.1,3.3-6.4,4.5-10,6
							l19,31.4h-27.3l-15.1-27.5h-7.3v27.5h-24.7V722.3z M181.5,738.6v18.1h10.3c4.1,0,11.9-0.2,11.9-8.9c0-8.9-7.7-9.2-12-9.2
							H181.5z M241.5,722.3h61.6v17.1h-37v11.5h34.6v16.9h-34.6v15.5h40.3v16.9h-65V722.3z M333.2,773.2c2.2,3.4,4.1,6.3,10.8,8.5
							c3.2,1.1,7.2,1.8,10.9,1.8c2,0,11.7-0.2,11.7-5.8c0-0.6,0-3.4-4.3-4.9c-2.8-1-17.1-3.5-20.3-4.3c-7.2-1.9-21.2-6.3-21.2-22.6
							c0-3.4,0.8-7,2.2-10c5.1-11.5,18.2-16,32.2-16c8.9,0,17,1.8,23.4,5c5.9,2.9,8.7,6,11.5,8.8l-15.5,12.9
							c-1.2-1.6-2.5-3.3-5.9-5.1c-4.5-2.2-10.5-2.9-14.5-2.9c-4.2,0-8.8,1.1-8.8,5.1c0,3.8,4,4.7,10.7,5.9
							c17.2,3,34.5,6.1,34.5,25.4c0,8.2-3.4,13.9-7,17.6c-9.8,10-25.4,10-29.7,10c-5.9,0-12-0.5-18.1-2.3
							c-12.4-3.5-18.1-10.5-21.6-14.8L333.2,773.2z M477.2,780c-2,3.8-3.9,7.3-7.6,11c-8,7.8-19.1,11.5-30.3,11.5
							c-27.8,0-40.4-21-40.4-41c0-20.9,14-42.2,40.4-42.2c11.8,0,23.1,4.2,31.2,12.6c3.3,3.4,4.9,6.1,6.5,9.2l-20.7,10.2
							c-2-4.5-5.7-12.8-16.1-12.8c-5.4,0-8.8,2.5-10.5,4.2c-5.8,5.5-5.8,14.4-5.8,17.5c0,11.6,4.3,22.5,16.5,22.5
							c11.5,0,14.9-10.2,15.8-12.8L477.2,780z M487,722.3h24.6v48.6c0,3.3,0.1,6.7,2.9,9.4c2,2.1,5,2.9,7.8,2.9
							c3.9,0,6.4-1.4,7.8-2.8c2.9-2.7,3-6.2,3-9.5v-48.6H558v41.4c0,8.9,0,20.5-9.2,29.3c-5.6,5.3-14.7,9.3-26.7,9.3
							c-11.5,0-21.4-3.8-27.2-9.3c-7.6-7.5-7.8-16.2-8-24.4V722.3z M571.3,722.3H633v17.1h-36.9v11.5h34.5v16.9h-34.5v15.5h40.2
							v16.9h-64.9V722.3z"/>
					</g>
				</g>
			</g>
		</g>
	</g>
</g>
</svg>
