<?xml version="1.0" encoding="utf-8"?>
<!-- Generator: Adobe Illustrator 17.1.0, SVG Export Plug-In . SVG Version: 6.00 Build 0)  -->
<!DOCTYPE svg PUBLIC "-//W3C//DTD SVG 1.1//EN" "http://www.w3.org/Graphics/SVG/1.1/DTD/svg11.dtd">
<svg version="1.1" id="Objects" xmlns="http://www.w3.org/2000/svg" xmlns:xlink="http://www.w3.org/1999/xlink" x="0px" y="0px"
	 viewBox="0 0 600 600" enable-background="new 0 0 600 600" xml:space="preserve">
<g>
	<g>
		<g>
			<g>
				<path fill="#FFFFFF" d="M103.1,564.4c0,6.2-2.7,9.3-8.2,9.3H68.6c-7.1,0-12.3-2.8-15.7-8.4c-2.8-4.6-4.4-10.8-4.7-18.7l-0.2-5.9
					h4l0.2,5.9c0.3,8.5,2.4,14.8,6.6,18.8c2.9,2.6,6.2,3.9,10.1,3.9h24.5c3.1,0,4.8-2,4.8-6.1c0-10.1,0-17.6-0.1-22.5h5
					C103.1,545.2,103.1,553.1,103.1,564.4z M72.5,535.9h-4.8v-5.8h4.8V535.9z M81.9,535.9h-4.8v-5.8h4.8V535.9z"/>
				<path fill="#FFFFFF" d="M135,573.8h-11.1c-2,0-3.9-0.8-5.6-2.4c-2.1-1.9-3.1-4.3-3.1-7.4l-0.3-48.8h4.7l0.4,48.1
					c0,3.3,2.6,6.2,5.2,6.2h9.8V573.8L135,573.8z"/>
				<path fill="#FFFFFF" d="M172.9,556.8c0,10.7-5.4,17.1-14.5,16.9h-25.2v-4.4H148c-3.1-3.2-4.7-7.4-4.7-12.6
					c0-10.6,5.4-16.9,14.5-16.9c4.6,0,8.4,1.8,11.2,5.3C171.7,548.4,172.9,552.2,172.9,556.8z M168.1,556.9c0-4.3-1.1-7.5-3.2-9.9
					c-1.8-2.2-4-3.2-6.9-3.2c-2.8,0-5.1,1.1-6.8,3.2c-1.8,2.3-2.7,5.7-2.7,9.9c0,4.3,1.1,7.5,3.1,9.9c1.9,2.2,4.1,3.2,6.9,3.2
					s5.1-1.1,6.8-3.2C167.2,564.4,168.1,561.1,168.1,556.9z"/>
				<path fill="#FFFFFF" d="M224.2,573.8h-40.5l1.4-4.4h25c-0.3-6.6-1.7-12.1-4.4-16.9c-2.4-4.5-5.3-7.1-8.5-7.5v-4.1
					c4.3,0.5,7.9,2.9,10.9,7.4c3.5,5.2,5.6,12.2,6.1,21.2h10V573.8z"/>
				<path fill="#FFFFFF" d="M275.6,573.8h-13.1h-39.9v-4.4h38.9c-0.1-7.8-1.9-13.9-5.4-18.5c-3.3-4.4-7.5-6.7-12.7-6.7
					c-4,0-8,1.1-12,3.2l-1.9-3.9c4-2.3,8.5-3.5,13.6-3.5c7.6,0,13.6,3,17.6,9c3.3,4.9,5.2,11.8,5.8,20.3h9L275.6,573.8L275.6,573.8z
					 M246.4,531.2h-4.8v-5.8h4.8V531.2z"/>
				<path fill="#FFFFFF" d="M295.7,562.2c0,3.5-0.9,6.3-2.6,8.4c-2,2.1-4.7,3.2-8.3,3.2H274v-4.4h9.8c4.7,0,7-2.4,7-7.2
					c0-12.7-0.1-28.3-0.2-46.9h4.8C295.5,527.7,295.6,543.3,295.7,562.2z"/>
				<path fill="#FFFFFF" d="M312.5,573.8h-4.7l-0.5-58.6h4.7L312.5,573.8z"/>
				<path fill="#FFFFFF" d="M380.5,573.8h-9.9c-3,0-5.2-1.2-6.8-3.5c-1.4-2-2.1-4.4-2-7.2h-13.4c-6.8,0-10.2-4.1-10.2-12.1
					c0-5.5,1.4-9.7,4.3-12.4c2.2-2.2,4.8-3.5,7.9-3.5c3.9,0,7.5,1.7,11,5.2v-4.5h4.6l0.1,27.9c0,3.9,1.5,5.8,4.5,5.8h9.9
					L380.5,573.8L380.5,573.8z M361.4,558.9l-0.1-14.2c-0.7-1.7-1.9-3.1-3.5-4.3c-1.8-1.3-3.7-1.9-5.8-1.9c-2.6,0-4.6,1.1-6.2,3.2
					c-1.7,2.3-2.6,5.5-2.6,9.6c0,5.2,2,7.7,6.1,7.7H361.4z M352.4,526.1h-4.8v-5.8h4.8V526.1z M362,526.1h-4.9v-5.8h4.9V526.1z"/>
				<path fill="#FFFFFF" d="M448.6,573.8h-69.7v-4.4h9l-0.2-49.1h4.7l-0.7,43.5c3.5-8.8,8.2-15.1,13.9-19c4.1-2.7,8.2-4,12.6-4
					c0.5,0,1.1,0,1.6,0.1c11.5,1.2,17.6,10.7,18.4,28.7h10.3L448.6,573.8L448.6,573.8z M433.8,569.3c-0.1-4.6-0.6-8.5-1.6-11.8
					c-2.2-8-6.4-12.3-12.3-12.8c-4.4-0.3-8.7,0.9-12.8,3.6c-6.1,4-11,11-14.9,20.9L433.8,569.3L433.8,569.3z"/>
				<path fill="#FFFFFF" d="M468.4,562.2c0,3.5-0.9,6.3-2.6,8.4c-1.9,2.1-4.7,3.2-8.3,3.2h-10.7v-4.4h9.8c4.7,0,7-2.4,7-7.2
					c0-4.1-0.1-11.2-0.2-21.3h4.8L468.4,562.2z M456.4,588.6h-4.8v-5.8h4.8V588.6z M465.8,588.6H461v-5.8h4.8V588.6z"/>
				<path fill="#FFFFFF" d="M508,573.8h-7.6c-2.4,0-4.5-0.8-6.3-2.6c-1.3-1.3-2.3-2.8-2.9-4.7c-0.3,7.3-2.3,13.3-6.4,18.3
					c-4.1,4.9-9.3,7.8-15.9,8.4c-0.4-0.8-1.1-2.2-1.9-4.1c5.7-0.3,10.3-2.7,14.1-7.2c3.5-4.3,5.2-9.5,5.2-15.7l-0.1-25.4h4.8
					l0.2,17.8c0,3.2,1,6,3,8c1.7,1.9,3.6,2.8,5.6,2.8h8.2L508,573.8L508,573.8z"/>
				<path fill="#FFFFFF" d="M550.4,573.8h-44v-4.4h38.8c-0.1-7.8-1.9-13.9-5.4-18.5c-3.3-4.4-7.5-6.7-12.7-6.7c-4.1,0-8,1.1-12,3.2
					l-1.9-3.9c4-2.3,8.5-3.5,13.6-3.5c8.4,0,14.6,3.6,18.6,10.7C548.7,556.5,550.3,564.2,550.4,573.8z M530.1,531.2h-4.8v-5.8h4.8
					V531.2z"/>
			</g>
		</g>
		<g>
			<path fill="#FFFFFF" d="M93.2,460.2c0,5.6-2.2,10.1-6.5,13.3c-4.3,3.2-10.1,4.9-17.3,4.9c-8.6,0-15.3-0.9-19.9-2.7V471
				c5.1,2,11.6,3.1,19.5,3.1c5.8,0,10.4-1.3,13.8-3.8c3.5-2.6,5.1-5.8,5.1-9.9c0-2.5-0.5-4.6-1.7-6.3c-1.1-1.7-3-3.2-5.5-4.6
				c-2.6-1.4-6.3-2.8-11.2-4.5c-7.2-2.3-12.2-4.9-15-7.6s-4.1-6.4-4.1-10.9c0-5,2.1-9.1,6.2-12.3s9.5-4.7,16.1-4.7
				c6.6,0,12.9,1.2,18.8,3.6l-1.8,4.1c-5.9-2.3-11.5-3.5-16.9-3.5c-5.2,0-9.4,1.1-12.4,3.5c-3.1,2.3-4.7,5.5-4.7,9.4
				c0,2.5,0.5,4.5,1.4,6.2c1,1.6,2.6,3,4.7,4.3c2.1,1.3,5.9,2.8,11.2,4.6c5.6,1.8,9.7,3.6,12.5,5.2c2.8,1.7,4.8,3.6,6.1,5.8
				C92.6,454.6,93.2,457.1,93.2,460.2z"/>
			<path fill="#FFFFFF" d="M128.2,478.4c-7.6,0-13.6-2.2-17.9-6.8s-6.5-10.7-6.5-18.8c0-7.9,2.1-14.3,6.2-19.1s9.7-7.2,16.7-7.2
				c6.2,0,11.1,2,14.7,6.1s5.4,9.7,5.4,16.7v3.7H109c0.1,6.9,1.8,12.1,5.1,15.7c3.3,3.6,8,5.4,14.2,5.4c3,0,5.6-0.2,7.9-0.6
				c2.2-0.4,5.2-1.3,8.6-2.6v4.1c-3,1.2-5.7,2-8.2,2.6C134.1,478.2,131.2,478.4,128.2,478.4z M126.8,430.7c-5.1,0-9.2,1.6-12.2,4.7
				c-3.1,3.2-4.9,7.7-5.4,13.7h32.5c0-5.8-1.4-10.3-4-13.6C135.2,432.3,131.5,430.7,126.8,430.7z"/>
			<path fill="#FFFFFF" d="M182.2,426.6c2.2,0,4.7,0.2,7.2,0.6l-0.9,4.4c-2.2-0.5-4.5-0.8-6.8-0.8c-4.5,0-8.2,1.8-11,5.4
				s-4.4,8.2-4.4,13.7v27.5h-4.8v-49.9h4l0.5,9h0.4c2.2-3.7,4.5-6.2,6.9-7.7C175.7,427.3,178.7,426.6,182.2,426.6z"/>
			<path fill="#FFFFFF" d="M211.6,477.5l-20.3-50h5l13.6,34c1.8,4.3,3.2,8.2,4.1,11.4h0.3c1.3-4.1,2.7-8,4-11.5l13.7-33.8h4.9
				l-20.3,49.9L211.6,477.5L211.6,477.5z"/>
			<path fill="#FFFFFF" d="M245,413.7c0-2.9,1-4.4,3.1-4.4c1,0,1.8,0.4,2.3,1.1c0.5,0.8,0.9,1.9,0.9,3.2c0,1.4-0.3,2.5-0.9,3.2
				c-0.5,0.8-1.3,1.2-2.3,1.2C245.9,418.2,245,416.7,245,413.7z M250.4,477.5h-4.8v-50h4.8V477.5z"/>
			<path fill="#FFFFFF" d="M289,478.4c-7.6,0-13.4-2.2-17.7-6.8c-4.3-4.5-6.4-10.8-6.4-18.8c0-8.2,2.2-14.7,6.6-19.3
				c4.4-4.6,10.5-6.9,18.1-6.9c4.6,0,8.9,0.8,13.1,2.2l-1.3,4.1c-4.6-1.4-8.5-2.2-11.8-2.2c-6.5,0-11.3,1.9-14.7,5.7
				c-3.3,3.8-5,9.2-5,16.4c0,6.8,1.7,12,5,15.8c3.3,3.8,8,5.7,14,5.7c4.8,0,9.2-0.8,13.3-2.4v4.3C299,477.7,294.5,478.4,289,478.4z"
				/>
			<path fill="#FFFFFF" d="M336.5,478.4c-7.7,0-13.7-2.2-17.9-6.8c-4.3-4.5-6.5-10.7-6.5-18.8c0-7.9,2.1-14.3,6.2-19.1
				s9.7-7.2,16.7-7.2c6.2,0,11.1,2,14.7,6.1s5.4,9.7,5.4,16.7v3.7h-38c0.1,6.9,1.8,12.1,5.1,15.7c3.3,3.6,8,5.4,14.2,5.4
				c3,0,5.6-0.2,8-0.6c2.2-0.4,5.2-1.3,8.6-2.6v4.1c-3,1.2-5.7,2-8.2,2.6C342.3,478.2,339.5,478.4,336.5,478.4z M335,430.7
				c-5.1,0-9.2,1.6-12.2,4.7c-3.1,3.2-4.9,7.7-5.4,13.7H350c0-5.8-1.4-10.3-4-13.6C343.4,432.3,339.7,430.7,335,430.7z"/>
			<path fill="#FFFFFF" d="M396.7,477.5v-67.1h4.9v67.2L396.7,477.5L396.7,477.5z"/>
			<path fill="#FFFFFF" d="M457.1,477.5v-32.4c0-5-1.1-8.7-3.3-10.9c-2.2-2.2-5.7-3.4-10.4-3.4c-6.3,0-10.9,1.5-13.8,4.5
				c-2.9,3-4.4,7.9-4.4,14.7v27.5h-4.8v-49.9h4l0.9,6.8h0.3c3.4-5.2,9.5-7.8,18.2-7.8c11.9,0,17.9,6.1,17.9,18.2v32.7L457.1,477.5
				L457.1,477.5z"/>
			<path fill="#FFFFFF" d="M498.5,431.6h-12.4v46h-4.8v-46h-9.8v-2.7l9.8-1.7v-3.8c0-6.1,1.2-10.6,3.6-13.5
				c2.3-2.8,6.2-4.3,11.6-4.3c2.9,0,5.8,0.4,8.7,1.3l-1.1,4c-2.6-0.8-5.2-1.1-7.7-1.1c-3.8,0-6.4,1.1-7.9,3.1
				c-1.6,2.1-2.3,5.5-2.3,10.2v4.6h12.4L498.5,431.6L498.5,431.6z"/>
			<path fill="#FFFFFF" d="M552.2,452.5c0,8.2-2.1,14.6-6.2,19.1c-4.1,4.6-9.9,6.9-17.2,6.9c-4.7,0-8.7-1.1-12.2-3.1
				c-3.5-2.1-6.2-5.2-8.1-9.1c-1.9-4-2.9-8.5-2.9-13.7c0-8.2,2.1-14.5,6.2-19.1c4.1-4.6,9.9-6.8,17.2-6.8c7.2,0,12.9,2.3,17,6.9
				C550.2,438.2,552.2,444.4,552.2,452.5z M510.7,452.5c0,6.9,1.6,12.2,4.8,16.1c3.2,3.8,7.7,5.8,13.5,5.8s10.3-1.9,13.5-5.8
				s4.8-9.2,4.8-16.1c0-6.9-1.6-12.2-4.8-16c-3.2-3.8-7.7-5.7-13.6-5.7c-5.8,0-10.3,1.9-13.4,5.7
				C512.2,440.2,510.7,445.6,510.7,452.5z"/>
		</g>
		<g>
			<rect x="39.1" y="494.8" fill="#FFFFFF" width="521.7" height="4.3"/>
		</g>
	</g>
</g>
<g>
	<g>
		<g>
			<g>
				<path fill="#365B6C" d="M413.9,331.5l-1.7,0l-33.1-210.4c-1-6.6-8.4-11.8-16.5-11.7l-129.8,1.8c-8.1,0.1-15.3,5.5-16.3,12
					l-29.2,208.2h-1.5v11.3h0c0,6.1,8.4,10.9,19.6,10.9h188.9c10.9,0,19.2-4.6,19.4-10.6h0V331.5z"/>
			</g>
			<g>
				<g>
					<path fill="#3F6579" d="M413.8,330.4c1,6.5-7.6,11.8-19.4,11.8H205.6c-11.7,0-20.5-5.3-19.6-11.8l30.7-218.7
						c0.9-6.5,8.2-11.8,16.3-11.8h129.8c8.1,0,15.4,5.3,16.5,11.8L413.8,330.4z"/>
				</g>
				<g>
					<polygon fill="#365B6C" points="223.8,127.9 372.9,127.9 201.5,307.7 					"/>
				</g>
				<g>
					<polygon fill="#365B6C" points="398.6,307.7 201.6,307.7 372.9,127.9 					"/>
				</g>
				<path fill="#8599A1" d="M316.2,323.5c0.2,5.1-7.1,9.3-16.3,9.3c-9.2,0-16.5-4.2-16.5-9.3c0.1-5.1,7.4-9.3,16.3-9.3
					C308.7,314.2,316.1,318.4,316.2,323.5z"/>
				<path fill="#B3B8BF" d="M329.7,118c0.1,1.2-1.1,1.5-2.6,1.5h-59.2c-1.5,0-7.5-0.3-7.5-1.5l0-0.4c0.1-1.2,6.1-2.1,7.6-2.1h58.8
					c1.5,0,2.7,0.9,2.8,2.1L329.7,118z"/>
				<g>
					<polygon fill="#EFEFF1" points="398.2,309.2 198.9,309.2 221.3,132.4 373.1,132.4 					"/>
					<polygon fill="#E8E4DF" points="225.3,129.3 203.9,306.2 395.4,306.2 370.9,129.3 					"/>
					<path fill="#C5D8B6" d="M313.1,248c0.1,4.8-6.1,8.6-13.8,8.6c-7.8,0-14-3.9-14-8.6c0.1-4.8,6.2-8.6,13.8-8.6
						C306.7,239.4,312.9,243.2,313.1,248z"/>
					<polygon fill="#C5D8B6" points="296.9,184.1 273.6,184.1 274.3,162.3 296.8,162.3 					"/>
					<polygon fill="#C5D8B6" points="363.5,248.8 388.1,248.8 396.2,306.2 342.6,306.2 341.4,287.3 					"/>
					<g>
						<path fill="#EDEEF0" d="M377,173.3l-0.4-3.1l-35.7,7.9l-2.9-36.5h-36.8l-0.2-12.3h-3.9l0.2,28.4h-34.5l-21.5-16.3h-17.7
							l-0.4,2.9h16.1l21.5,16.3h36.3l0.2,25.1h-48.5l-24.7,7.1l2.5-22.4h-6.6l-0.2,1.6h4.3l-2.4,21.5l-4.7,1.3l-0.4,3.2l32.9-9.4
							h47.8l0.4,49.9c-6.9,0.6-12.5,4.1-13.5,8.4h-24.6l-8,6.1l-32.2-28h-5.8l-0.4,2.9h3.6l31.6,27.4l-19.4,14.2h-20.9l-0.4,2.9
							h23.3l30.7-22.6h22.4c1,4.3,6.6,7.8,13.7,8.4l0.1,9.9l-20.8,10.1l-0.6,27.9h5.1l0.4-26.5l20.8-10.1l-0.2-11.3
							c2.7-0.2,5.2-0.9,7.3-1.9l28.4,32.7l1.1,17h5.1l-1.2-17.1l21.9-39.2h22l-0.4-2.9h-11.7l-2-16.4h-24.2l-11.8-9.9h46l-0.4-2.9
							h-79.4l23.9-33.8L377,173.3z M300.5,255.5c-6.4,0-11.6-3.2-11.5-7.1c0-3.9,5.1-7.1,11.4-7.1c6.2,0,11.4,3.2,11.5,7.1
							C312,252.3,306.9,255.5,300.5,255.5z M340.7,285.2l-26.9-31c1.5-1.3,2.4-2.8,2.7-4.4h44.1L340.7,285.2z M332,220.7l15.2,12.8
							h22.1l1.5,13.5h-54.4c-1.2-4.3-6.8-7.8-13.7-8.4l-0.3-17.8H332z M302.3,213l-1-69.9H336l2.7,35.4l-14.2,3.1L302.3,213z"/>
						<path fill="#C8CCD2" d="M313.5,254.2l27.2,31.3l20.1-35.7h-44.5C316,251.4,315,253,313.5,254.2z M360.3,250l-19.7,35
							L314,254.3c1.4-1.3,2.4-2.7,2.7-4.3H360.3z"/>
						<polygon fill="#C8CCD2" points="387.2,247.1 387.2,246.9 375.7,246.9 373.7,230.5 349.4,230.5 337.9,220.9 383.6,220.9 
							383.5,220.6 337.2,220.6 349.3,230.7 373.4,230.7 375.4,247.1 						"/>
						<path fill="#C8CCD2" d="M369.4,233.4h-22.1l-15.2-12.8h-29.9l0.3,18c7,0.6,12.6,4.1,13.7,8.4H371L369.4,233.4z M370.6,246.9
							h-54.1c-1.2-4.3-6.8-7.7-13.7-8.4l-0.3-17.6h29.3l15.1,12.7l0.1,0.1h22L370.6,246.9z"/>
						<path fill="#C8CCD2" d="M249.8,188.5l-32.8,9.4l0,0.2l32.9-9.4h47.6l0.4,49.7c-6.9,0.7-12.4,4.1-13.5,8.4h-24.5l-0.1,0.1
							l-7.8,5.9l-32.1-27.8l-0.1-0.1h-5.9l0,0.2h5.8l32.3,28l8.1-6.2h24.7c1-4.4,6.6-7.8,13.6-8.4l-0.4-50.1H249.8z"/>
						<polygon fill="#C8CCD2" points="303.5,217.9 383.2,217.9 383.1,217.7 304,217.7 327.7,184.2 377,173.4 377,173.1 327.5,184 
													"/>
						<path fill="#C8CCD2" d="M302.1,213.5l22.5-31.8l14.2-3.1l-2.7-35.6h-35L302.1,213.5z M301.4,143.3h34.4l2.6,35.2l-14,3l-0.1,0
							l-0.1,0.1l-21.8,30.9L301.4,143.3z"/>
						<polygon fill="#C8CCD2" points="343.5,289.1 344.7,306.2 345.1,306.2 343.9,289.1 365.8,250 387.6,250 387.6,249.8 
							365.5,249.8 						"/>
						<path fill="#C8CCD2" d="M284.6,249.8h-22.7l-30.7,22.6H208l0,0.2h23.4l0.1-0.1l30.5-22.5h22.2c1,4.3,6.6,7.7,13.7,8.4l0.1,9.8
							l-20.6,10l-0.1,0.1l-0.6,27.9h0.4l0.6-27.8l20.8-10.1l-0.1-10.1C291.2,257.6,285.5,254.1,284.6,249.8z"/>
						<path fill="#C8CCD2" d="M302.8,258.2l0.2,11.4l-20.8,10.1l-0.4,26.6h0.4l0.4-26.4l20.6-10l0.1-0.1l-0.2-11.3
							c2.6-0.2,5-0.9,7.1-1.8l28.3,32.6l1.1,17h0.4l-1.1-17l-28.6-32.9C308.2,257.3,305.6,258,302.8,258.2z"/>
						<polygon fill="#C8CCD2" points="297,129.3 297.2,157.6 263,157.6 241.6,141.4 241.5,141.3 223.8,141.3 223.8,141.5 
							241.4,141.5 262.8,157.9 297.5,157.9 297.3,129.3 						"/>
						<polygon fill="#C8CCD2" points="338.1,141.5 301.4,141.5 301.2,129.3 300.9,129.3 301.1,141.7 337.9,141.7 340.7,178.2 
							376.6,170.3 376.5,170.1 341,177.9 						"/>
						<polygon fill="#C8CCD2" points="220.1,171.9 220.1,172.2 224.3,172.2 221.9,193.5 217.4,194.8 217.3,195 222.2,193.6 
							224.6,171.9 						"/>
						<polygon fill="#C8CCD2" points="217.1,227.9 213.4,227.9 213.4,228.1 216.9,228.1 248.4,255.4 229.1,269.5 208.4,269.5 
							208.3,269.7 229.3,269.7 248.9,255.4 						"/>
						<polygon fill="#C8CCD2" points="261.1,160.5 239.6,144.2 223.5,144.2 223.4,144.4 239.5,144.4 260.9,160.7 261,160.8 
							297.3,160.8 297.4,185.6 249.1,185.6 249,185.6 224.6,192.7 227.1,170.4 220.3,170.4 220.3,170.6 226.7,170.6 224.3,193 
							249.2,185.8 297.8,185.8 297.6,160.5 						"/>
						<path fill="#C8CCD2" d="M300.5,255.6c6.5,0,11.7-3.2,11.6-7.2c-0.1-4-5.4-7.2-11.7-7.2c-6.3,0-11.5,3.2-11.5,7.2
							C288.8,252.4,294,255.6,300.5,255.6z M300.4,241.5c6.1,0,11.2,3.1,11.3,7c0.1,3.8-4.9,7-11.2,7c-6.3,0-11.4-3.1-11.3-7
							C289.2,244.6,294.2,241.5,300.4,241.5z"/>
					</g>
					<g>
						<polygon fill="#E2DDD8" stroke="#D6D2CF" stroke-width="1.4111" stroke-miterlimit="10" points="331.2,144.2 322.7,144.2 
							322.9,146.6 331.4,146.6 331.6,150.7 336.1,150.7 335.8,146.6 335.6,144.2 						"/>
						<polygon fill="#E2DDD8" stroke="#D6D2CF" stroke-width="1.4111" stroke-miterlimit="10" points="332.2,152.7 324,150.7 
							323,153 331.3,155 329.6,158.9 334,160 335.6,156 336.5,153.8 						"/>
						<polygon fill="#E2DDD8" stroke="#D6D2CF" stroke-width="1.4111" stroke-miterlimit="10" points="312.8,146.6 304.6,146.6 
							304.5,144.2 312.7,144.2 						"/>
						<polygon fill="#E2DDD8" stroke="#D6D2CF" stroke-width="1.4111" stroke-miterlimit="10" points="312.9,150.7 304.6,150.7 
							304.6,148.4 312.8,148.4 						"/>
						<polygon fill="#E2DDD8" stroke="#D6D2CF" stroke-width="1.4111" stroke-miterlimit="10" points="313,154.9 304.7,154.9 
							304.7,152.5 313,152.5 						"/>
						<polygon fill="#E2DDD8" stroke="#D6D2CF" stroke-width="1.4111" stroke-miterlimit="10" points="313.2,159 304.8,159 
							304.8,156.7 313.1,156.7 						"/>
						<polygon fill="#E2DDD8" stroke="#D6D2CF" stroke-width="1.4111" stroke-miterlimit="10" points="321.9,162.9 321.6,157 
							324.9,157 325.2,162.9 						"/>
						<polygon fill="#E2DDD8" stroke="#D6D2CF" stroke-width="1.4111" stroke-miterlimit="10" points="312.1,178.3 312,172.3 
							315.3,172.3 315.6,178.3 						"/>
						<polygon fill="#E2DDD8" stroke="#D6D2CF" stroke-width="1.4111" stroke-miterlimit="10" points="305.6,197.7 305.5,191.7 
							308.9,191.7 309.1,197.7 						"/>
						<polygon fill="#E2DDD8" stroke="#D6D2CF" stroke-width="1.4111" stroke-miterlimit="10" points="312,194.1 315,188.5 
							318.3,189.4 315.3,195 						"/>
						<polygon fill="#E2DDD8" stroke="#D6D2CF" stroke-width="1.4111" stroke-miterlimit="10" points="313.3,163.2 304.9,163.2 
							304.8,160.8 313.2,160.8 						"/>
						<polygon fill="#E2DDD8" stroke="#D6D2CF" stroke-width="1.4111" stroke-miterlimit="10" points="336.4,163.7 336.2,161.4 
							327.8,161.4 327.8,162 327.9,163.7 328,165.9 328.2,168.3 328.3,169.9 328.4,172.3 337,172.3 336.8,169.9 331.7,169.9 
							331.5,168.3 336.7,168.3 336.5,165.9 331.4,165.9 331.3,163.7 						"/>
						<polygon fill="#E2DDD8" stroke="#D6D2CF" stroke-width="1.4111" stroke-miterlimit="10" points="249.3,213.3 248.9,219.5 
							252.6,219.5 252.9,213.3 259.3,213.3 259.5,210.1 253.1,210.1 249.6,210.1 						"/>
						<polygon fill="#E2DDD8" stroke="#D6D2CF" stroke-width="1.4111" stroke-miterlimit="10" points="229,182.1 228.3,188.3 
							231.8,188.3 232.4,182.1 238.4,182.1 238.7,178.9 232.7,178.9 229.3,178.9 						"/>
						<polygon fill="#E2DDD8" stroke="#D6D2CF" stroke-width="1.4111" stroke-miterlimit="10" points="291.5,223.3 282.4,221.3 
							281.2,223.5 290.3,225.5 288.1,229.5 293,230.5 295.1,226.6 296.2,224.4 						"/>
						<polygon fill="#E2DDD8" stroke="#D6D2CF" stroke-width="1.4111" stroke-miterlimit="10" points="270.7,219.5 260.2,219.5 
							260.3,216.8 270.8,216.8 						"/>
						<polygon fill="#E2DDD8" stroke="#D6D2CF" stroke-width="1.4111" stroke-miterlimit="10" points="270.5,224.2 260,224.2 
							260.1,221.5 270.6,221.5 						"/>
						<polygon fill="#E2DDD8" stroke="#D6D2CF" stroke-width="1.4111" stroke-miterlimit="10" points="362.3,224.9 351.7,224.9 
							351.5,222.2 362,222.2 						"/>
						<polygon fill="#E2DDD8" stroke="#D6D2CF" stroke-width="1.4111" stroke-miterlimit="10" points="362.8,229.6 352.1,229.6 
							351.9,226.9 362.5,226.9 						"/>
						<polygon fill="#E2DDD8" stroke="#D6D2CF" stroke-width="1.4111" stroke-miterlimit="10" points="378.4,224.9 367.8,224.9 
							367.5,222.2 378.1,222.2 						"/>
						<polygon fill="#E2DDD8" stroke="#D6D2CF" stroke-width="1.4111" stroke-miterlimit="10" points="379,229.6 368.4,229.6 
							368.1,226.9 378.7,226.9 						"/>
						<polygon fill="#E2DDD8" stroke="#D6D2CF" stroke-width="1.4111" stroke-miterlimit="10" points="270.4,228.9 259.7,228.9 
							259.9,226.2 270.5,226.2 						"/>
						<polygon fill="#E2DDD8" stroke="#D6D2CF" stroke-width="1.4111" stroke-miterlimit="10" points="270.2,233.6 259.5,233.6 
							259.6,230.9 270.3,230.9 						"/>
						<polygon fill="#E2DDD8" stroke="#D6D2CF" stroke-width="1.4111" stroke-miterlimit="10" points="279.1,233.5 279.2,227.5 
							282.9,227.5 282.9,233.5 						"/>
						<polygon fill="#E2DDD8" stroke="#D6D2CF" stroke-width="1.4111" stroke-miterlimit="10" points="266.1,156.7 266.3,150.7 
							269.6,150.7 269.4,156.7 						"/>
						<polygon fill="#E2DDD8" stroke="#D6D2CF" stroke-width="1.4111" stroke-miterlimit="10" points="292.7,156.7 292.7,150.7 
							295.9,150.7 296,156.7 						"/>
						<polygon fill="#E2DDD8" stroke="#D6D2CF" stroke-width="1.4111" stroke-miterlimit="10" points="266,245.8 266.2,239.8 
							270,239.8 269.8,245.8 						"/>
						<polygon fill="#E2DDD8" stroke="#D6D2CF" stroke-width="1.4111" stroke-miterlimit="10" points="270.1,238.3 259.2,238.3 
							259.4,235.6 270.1,235.6 						"/>
						<polygon fill="#E2DDD8" stroke="#D6D2CF" stroke-width="1.4111" stroke-miterlimit="10" points="253.4,238.6 251.1,236.7 
							243.5,240.5 244.1,241 245.8,242.3 247.9,244.1 250.1,245.9 251.7,247.1 254,249 261.7,245.2 259.4,243.3 254.7,245.6 
							253.2,244.4 257.8,242.1 255.5,240.3 250.9,242.6 248.8,240.8 						"/>
						<polygon fill="#E2DDD8" stroke="#D6D2CF" stroke-width="1.4111" stroke-miterlimit="10" points="240.7,228.3 238.5,226.4 
							230.9,230.2 231.5,230.7 233.1,232.1 235.1,233.8 237.3,235.6 238.8,236.8 241.1,238.7 248.7,234.9 246.5,233.1 241.9,235.3 
							240.4,234.1 245,231.8 242.7,230 238.1,232.3 236.1,230.6 						"/>
						<polygon fill="#E2DDD8" stroke="#D6D2CF" stroke-width="1.4111" stroke-miterlimit="10" points="229,218.3 226.9,216.4 
							219.3,220.2 219.8,220.7 221.4,222 223.4,223.8 225.5,225.6 227,226.8 229.1,228.7 236.7,224.9 234.6,223 230,225.3 
							228.5,224.1 233.1,221.8 231,220 226.4,222.3 224.4,220.6 						"/>
						<polygon fill="#E2DDD8" stroke="#D6D2CF" stroke-width="1.4111" stroke-miterlimit="10" points="221.5,173.2 220.8,179.7 
							223.4,179.7 224.1,173.2 						"/>
						<polygon fill="#E2DDD8" stroke="#D6D2CF" stroke-width="1.4111" stroke-miterlimit="10" points="314.2,228.2 317.8,222.7 
							321.2,223.7 317.6,229.1 						"/>
						<polygon fill="#E2DDD8" stroke="#D6D2CF" stroke-width="1.4111" stroke-miterlimit="10" points="307.5,228.9 307.3,222.9 
							311,222.9 311.2,228.9 						"/>
						<polygon fill="#E2DDD8" stroke="#D6D2CF" stroke-width="1.4111" stroke-miterlimit="10" points="233.2,150.5 240.9,148 
							239.8,145.8 232.1,148.3 						"/>
						<polygon fill="#E2DDD8" stroke="#D6D2CF" stroke-width="1.4111" stroke-miterlimit="10" points="227.3,154.2 235.6,154.2 
							235.8,151.8 227.5,151.8 						"/>
						<polygon fill="#E2DDD8" stroke="#D6D2CF" stroke-width="1.4111" stroke-miterlimit="10" points="235.8,158 244.2,158 
							244.4,155.7 236.1,155.7 						"/>
						<polygon fill="#E2DDD8" stroke="#D6D2CF" stroke-width="1.4111" stroke-miterlimit="10" points="224.3,149.7 231.9,147.3 
							230.8,145.2 224.6,147.1 						"/>
						<polygon fill="#E2DDD8" stroke="#D6D2CF" stroke-width="1.4111" stroke-miterlimit="10" points="261.1,283.9 261.4,277.6 
							265.4,277.6 265.1,283.9 272.2,283.9 272.1,287.1 265,287.1 261,287.1 						"/>
						<polygon fill="#E2DDD8" stroke="#D6D2CF" stroke-width="1.4111" stroke-miterlimit="10" points="244.5,257.4 237.2,262 
							234.5,260.4 241.8,255.8 237.1,253 240.8,250.6 245.5,253.4 248.3,255 						"/>
						<polygon fill="#E2DDD8" stroke="#D6D2CF" stroke-width="1.4111" stroke-miterlimit="10" points="271.5,260.8 267.6,255.3 
							264.1,256.3 267.9,261.7 						"/>
						<polygon fill="#E2DDD8" stroke="#D6D2CF" stroke-width="1.4111" stroke-miterlimit="10" points="277.5,264.7 277.7,258.7 
							273.8,258.7 273.6,264.7 						"/>
						<polygon fill="#E2DDD8" stroke="#D6D2CF" stroke-width="1.4111" stroke-miterlimit="10" points="283.9,258.3 284,252.3 
							280.2,252.3 280.1,258.3 						"/>
						<polygon fill="#E2DDD8" stroke="#D6D2CF" stroke-width="1.4111" stroke-miterlimit="10" points="293.5,266.1 289.4,260.6 
							285.9,261.6 289.9,267.1 						"/>
						<polygon fill="#E2DDD8" stroke="#D6D2CF" stroke-width="1.4111" stroke-miterlimit="10" points="228.1,255.6 218.3,255.6 
							218.6,253.2 228.3,253.2 						"/>
						<polygon fill="#E2DDD8" stroke="#D6D2CF" stroke-width="1.4111" stroke-miterlimit="10" points="223.9,263.6 224.5,257.6 
							228.3,257.6 227.8,263.6 						"/>
						<polygon fill="#E2DDD8" stroke="#D6D2CF" stroke-width="1.4111" stroke-miterlimit="10" points="217,263.6 217.7,257.6 
							221.6,257.6 220.9,263.6 						"/>
						<polygon fill="#E2DDD8" stroke="#D6D2CF" stroke-width="1.4111" stroke-miterlimit="10" points="226.9,268 217,268 
							217.3,265.7 227.2,265.7 						"/>
						<polygon fill="#E2DDD8" stroke="#D6D2CF" stroke-width="1.4111" stroke-miterlimit="10" points="225.5,247.5 226.1,241.5 
							229.9,241.5 229.3,247.5 						"/>
						<polygon fill="#E2DDD8" stroke="#D6D2CF" stroke-width="1.4111" stroke-miterlimit="10" points="218.8,247.5 219.5,241.5 
							223.2,241.5 222.6,247.5 						"/>
						<polygon fill="#E2DDD8" stroke="#D6D2CF" stroke-width="1.4111" stroke-miterlimit="10" points="228.5,251.9 218.7,251.9 
							219,249.6 228.7,249.6 						"/>
						<polygon fill="#E2DDD8" stroke="#D6D2CF" stroke-width="1.4111" stroke-miterlimit="10" points="343.1,231 336.3,226 
							334.3,224.5 332.1,225.7 329.5,227.1 331.5,228.6 334.1,227.2 340.8,232.2 						"/>
						<polygon fill="#E2DDD8" stroke="#D6D2CF" stroke-width="1.4111" stroke-miterlimit="10" points="364.6,178.3 368,184 
							371.2,183.3 367.8,177.6 						"/>
						<polygon fill="#E2DDD8" stroke="#D6D2CF" stroke-width="1.4111" stroke-miterlimit="10" points="359,179.6 362.4,185.3 
							365.6,184.6 362.2,178.9 						"/>
						<polygon fill="#E2DDD8" stroke="#D6D2CF" stroke-width="1.4111" stroke-miterlimit="10" points="353.4,180.9 356.7,186.6 
							359.9,185.8 356.6,180.1 						"/>
						<polygon fill="#E2DDD8" stroke="#D6D2CF" stroke-width="1.4111" stroke-miterlimit="10" points="361,234.8 364.1,234.8 
							364.8,241.1 361.7,241.1 358.6,241.1 358,234.8 						"/>
						<polygon fill="#E2DDD8" stroke="#D6D2CF" stroke-width="1.4111" stroke-miterlimit="10" points="363.3,242.2 367,242.2 
							366.6,237.9 369.6,237.9 370.1,242.2 370.3,244.2 367.2,244.2 363.5,244.2 363.6,245.7 360.5,245.7 360.4,244.2 360.2,242.2 
													"/>
						<path fill="#E2DDD8" stroke="#D6D2CF" stroke-width="1.4111" stroke-miterlimit="10" d="M345.3,196.5l-2.8,0.6l-0.1-0.1
							l-2.7,0.6l0.1,0.2l-0.2,0l1,1.8l0.2,0l1.1,1.9l-0.2,0.1l1,1.8l0.2,0l0.1,0.1l2.7-0.6l-0.1-0.1l2.9-0.6l0.1,0.1l2.7-0.6
							l-0.1-0.1l0.2,0l-1.1-1.8l-0.2,0l-1.1-1.9l0.2,0l-1.1-1.8l-0.2,0l-0.1-0.1l-2.7,0.6L345.3,196.5z M346.4,198.3l1.1,1.9
							l-2.8,0.6l-1.1-1.9L346.4,198.3z"/>
						<polygon fill="#E2DDD8" stroke="#D6D2CF" stroke-width="1.4111" stroke-miterlimit="10" points="209,279.7 208.7,281.9 
							216,281.9 216.3,279.7 						"/>
						<polygon fill="#E2DDD8" stroke="#D6D2CF" stroke-width="1.4111" stroke-miterlimit="10" points="211.2,284.9 210.9,287 
							222.6,287 222.8,284.9 						"/>
						<polygon fill="#E2DDD8" stroke="#D6D2CF" stroke-width="1.4111" stroke-miterlimit="10" points="212.4,274.3 212.1,276.4 
							223.7,276.4 223.9,274.3 						"/>
						<polygon fill="#E2DDD8" stroke="#D6D2CF" stroke-width="1.4111" stroke-miterlimit="10" points="214.5,291.4 214.2,293.6 
							226.1,293.6 226.3,291.4 						"/>
						<polygon fill="#E2DDD8" stroke="#D6D2CF" stroke-width="1.4111" stroke-miterlimit="10" points="351.4,254 343.7,254 
							343.5,251.9 351.2,251.9 354.7,251.9 354.9,254 355.3,258.7 351.8,258.7 						"/>
						<polygon fill="#E2DDD8" stroke="#D6D2CF" stroke-width="1.4111" stroke-miterlimit="10" points="323.2,254 323.4,258.7 
							319.9,258.7 319.7,254 319.7,251.9 323.1,251.9 330.8,251.9 330.9,254 						"/>
						<polygon fill="#E2DDD8" stroke="#D6D2CF" stroke-width="1.4111" stroke-miterlimit="10" points="341.5,273.4 346.8,270.1 
							349.5,271.6 344.1,275 341.7,276.5 339.1,275 333.3,271.6 335.7,270.1 						"/>
						<polygon fill="#E2DDD8" stroke="#D6D2CF" stroke-width="1.4111" stroke-miterlimit="10" points="208.4,304.7 209.3,297.5 
							209.5,295.4 213.2,295.4 217.4,295.4 217.2,297.5 213,297.5 212.2,304.7 						"/>
						<polygon fill="#E2DDD8" stroke="#D6D2CF" stroke-width="1.4111" stroke-miterlimit="10" points="218.1,229.8 215,231.2 
							221.5,237.4 224.7,235.9 						"/>
						<polygon fill="#E2DDD8" stroke="#D6D2CF" stroke-width="1.4111" stroke-miterlimit="10" points="356.2,245.4 339.9,245.4 
							335.1,245.4 334.9,242.4 334.7,239 339.5,239 339.7,242.4 355.9,242.4 						"/>
						<polygon fill="#E2DDD8" stroke="#D6D2CF" stroke-width="1.4111" stroke-miterlimit="10" points="213.7,263.6 213.9,261.5 
							213.7,261.5 213.7,261.3 211.1,261.3 210.3,268.2 212.9,268.2 212.9,268 213.2,268 213.4,265.9 213.1,265.9 213.4,263.6 
													"/>
						<polygon fill="#E2DDD8" stroke="#D6D2CF" stroke-width="1.4111" stroke-miterlimit="10" points="373.2,156.7 364.8,156.7 
							364.5,154.3 372.8,154.3 						"/>
						<polygon fill="#E2DDD8" stroke="#D6D2CF" stroke-width="1.4111" stroke-miterlimit="10" points="370.7,165 369.9,159 
							373.2,159 374,165 						"/>
						<polygon fill="#E2DDD8" stroke="#D6D2CF" stroke-width="1.4111" stroke-miterlimit="10" points="374.9,169.1 366.3,169.1 
							366,166.8 374.5,166.8 						"/>
						<polygon fill="#E2DDD8" stroke="#D6D2CF" stroke-width="1.4111" stroke-miterlimit="10" points="372.7,153 364.4,153 
							364.1,150.7 372.3,150.7 						"/>
						<polygon fill="#E2DDD8" stroke="#D6D2CF" stroke-width="1.4111" stroke-miterlimit="10" points="345.3,174.5 344.4,164.4 
							344.2,161.4 348.4,161.4 353.2,161.4 353.6,164.4 348.7,164.4 349.6,174.5 						"/>
						<path fill="#E2DDD8" stroke="#D6D2CF" stroke-width="1.4111" stroke-miterlimit="10" d="M356.9,172.2h3.2l0,0.2h3.1l0-0.2h0.2
							l-0.2-2.1h-0.2l-0.3-2.3h0.2l-0.2-2.1h-0.2l0-0.2h-3l0,0.2h-3.2l0-0.2h-3l0,0.2h-0.2l0.2,2.1h0.2l0.2,2.3h-0.2l0.2,2.1h0.2
							l0,0.2h3.1L356.9,172.2z M356.6,170.1l-0.2-2.3h3.2l0.3,2.3H356.6z"/>
						<polygon fill="#E2DDD8" stroke="#D6D2CF" stroke-width="1.4111" stroke-miterlimit="10" points="333.7,140.3 333.2,134.3 
							336.4,134.3 336.9,140.3 						"/>
						<polygon fill="#E2DDD8" stroke="#D6D2CF" stroke-width="1.4111" stroke-miterlimit="10" points="322.3,137.8 330.4,137.8 
							330.5,140.1 322.4,140.1 						"/>
						<polygon fill="#E2DDD8" stroke="#D6D2CF" stroke-width="1.4111" stroke-miterlimit="10" points="322.1,134.8 330.2,134.8 
							330.3,137.2 322.2,137.2 						"/>
						<polygon fill="#E2DDD8" stroke="#D6D2CF" stroke-width="1.4111" stroke-miterlimit="10" points="316.8,140.3 316.5,134.3 
							319.7,134.3 320,140.3 						"/>
						<path fill="#E2DDD8" stroke="#D6D2CF" stroke-width="1.4111" stroke-miterlimit="10" d="M308.6,140.6h3.1l0,0.2h2.9l0-0.2h0.2
							l-0.1-2.1h-0.2l-0.1-2.3h0.2l-0.1-2.1h-0.2l0-0.2h-2.9l0,0.2h-3l0-0.2h-2.9l0,0.2h-0.2l0,2.1h0.2l0.1,2.3h-0.2l0,2.1h0.2
							l0,0.2h2.9L308.6,140.6z M308.6,138.4l-0.1-2.3h3l0.1,2.3H308.6z"/>
						<path fill="#E2DDD8" stroke="#D6D2CF" stroke-width="1.4111" stroke-miterlimit="10" d="M265.4,176.2h3.2l0,0.2h3.1l0-0.2h0.2
							l0.1-2.1h-0.2l0.1-2.3h0.2l0.1-2.1H272l0-0.2h-3.1l0,0.2h-3.2l0-0.2h-3l0,0.2h-0.2l-0.1,2.1h0.2l-0.1,2.3h-0.3l-0.1,2.1h0.3
							l0,0.2h3.1L265.4,176.2z M265.5,174.1l0.1-2.3h3.2l-0.1,2.3H265.5z"/>
						<polygon fill="#E2DDD8" stroke="#D6D2CF" stroke-width="1.4111" stroke-miterlimit="10" points="286.7,199.6 283.5,199.6 
							283.4,206.5 286.6,206.5 						"/>
						<polygon fill="#E2DDD8" stroke="#D6D2CF" stroke-width="1.4111" stroke-miterlimit="10" points="278.9,203.8 275.7,203.8 
							275.5,210.7 278.7,210.7 						"/>
						<polygon fill="#E2DDD8" stroke="#D6D2CF" stroke-width="1.4111" stroke-miterlimit="10" points="294.9,203.8 291.6,203.8 
							291.6,210.7 294.9,210.7 						"/>
						<polygon fill="#E2DDD8" stroke="#D6D2CF" stroke-width="1.4111" stroke-miterlimit="10" points="268.9,206.2 265.7,206.2 
							265.4,213 268.7,213 						"/>
						<polygon fill="#E2DDD8" stroke="#D6D2CF" stroke-width="1.4111" stroke-miterlimit="10" points="231.4,130.9 228.5,130.9 
							227.8,137.8 230.6,137.8 						"/>
						<polygon fill="#E2DDD8" stroke="#D6D2CF" stroke-width="1.4111" stroke-miterlimit="10" points="268,189.3 271.2,189.3 
							270.9,196.2 267.7,196.2 264.5,196.2 264.9,189.3 						"/>
						<polygon fill="#E2DDD8" stroke="#D6D2CF" stroke-width="1.4111" stroke-miterlimit="10" points="258.9,197.5 259.2,192.7 
							262.3,192.7 262.1,197.5 262,199.6 258.8,199.6 251.7,199.6 251.8,197.5 						"/>
						<polygon fill="#E2DDD8" stroke="#D6D2CF" stroke-width="1.4111" stroke-miterlimit="10" points="269.3,166.3 269.5,161.6 
							272.5,161.6 272.3,166.3 272.3,168.4 269.2,168.4 262.5,168.4 262.6,166.3 						"/>
						<polygon fill="#E2DDD8" stroke="#D6D2CF" stroke-width="1.4111" stroke-miterlimit="10" points="268.8,179.6 268.6,184.3 
							271.7,184.3 271.9,179.6 271.9,177.5 268.9,177.5 262,177.5 261.9,179.6 						"/>
						<polygon fill="#E2DDD8" stroke="#D6D2CF" stroke-width="1.4111" stroke-miterlimit="10" points="249,203.5 259.9,203.5 
							263.1,203.5 263,205.7 262.9,208.1 259.6,208.1 259.8,205.7 248.9,205.7 						"/>
						<polygon fill="#E2DDD8" stroke="#D6D2CF" stroke-width="1.4111" stroke-miterlimit="10" points="244.8,180.3 255.2,180.3 
							258.3,180.3 258.2,182.5 258.1,184.9 254.9,184.9 255.1,182.5 244.6,182.5 						"/>
						<polygon fill="#E2DDD8" stroke="#D6D2CF" stroke-width="1.4111" stroke-miterlimit="10" points="270,199.3 273.9,199.3 
							274.1,194.6 277.2,194.6 277.1,199.3 277.1,201.5 273.9,201.5 269.9,201.5 269.9,203.2 266.7,203.2 266.7,201.5 266.8,199.3 
													"/>
						<polygon fill="#E2DDD8" stroke="#D6D2CF" stroke-width="1.4111" stroke-miterlimit="10" points="316.9,207.6 312.6,213 
							315.8,214.2 320.1,208.7 325.8,210.7 328,207.9 322.4,205.9 319.2,204.8 						"/>
						<polygon fill="#E2DDD8" stroke="#D6D2CF" stroke-width="1.4111" stroke-miterlimit="10" points="349.5,208.5 346.5,207.5 
							342,213.5 344.9,214.5 						"/>
						<polygon fill="#E2DDD8" stroke="#D6D2CF" stroke-width="1.4111" stroke-miterlimit="10" points="338.9,207.4 336,206.4 
							331.4,212.4 334.3,213.4 						"/>
						<polygon fill="#E2DDD8" stroke="#D6D2CF" stroke-width="1.4111" stroke-miterlimit="10" points="333.8,187 336.6,188 
							332.1,194.1 329.3,193.1 326.4,192 330.9,186 						"/>
						<polygon fill="#E2DDD8" stroke="#D6D2CF" stroke-width="1.4111" stroke-miterlimit="10" points="332,196.2 335.1,192 
							337.9,193 334.8,197.2 333.4,199.1 330.6,198 324.2,195.8 325.7,193.9 						"/>
						<polygon fill="#E2DDD8" stroke="#D6D2CF" stroke-width="1.4111" stroke-miterlimit="10" points="322.8,198.7 332.4,202.2 
							335.3,203.2 333.9,205.1 332.2,207.2 329.3,206.2 331,204.1 321.3,200.6 						"/>
						<polygon fill="#E2DDD8" stroke="#D6D2CF" stroke-width="1.4111" stroke-miterlimit="10" points="342.2,183.7 345.6,185 
							348.6,180.8 351.4,181.8 348.5,186 347.1,187.9 344.3,186.8 340.9,185.6 339.8,187.1 336.9,186.1 338,184.6 339.4,182.7 
													"/>
						<polygon fill="#E2DDD8" stroke="#D6D2CF" stroke-width="1.4111" stroke-miterlimit="10" points="232.8,172.4 236.5,172.4 
							236.9,167.6 240,167.6 239.6,172.4 239.4,174.5 236.3,174.5 232.6,174.5 232.4,176.2 229.3,176.2 229.5,174.5 229.7,172.4 
													"/>
						<polygon fill="#E2DDD8" stroke="#D6D2CF" stroke-width="1.4111" stroke-miterlimit="10" points="246.7,209.7 243.5,209.7 
							242.9,216.6 246.2,216.6 						"/>
						<polygon fill="#E2DDD8" stroke="#D6D2CF" stroke-width="1.4111" stroke-miterlimit="10" points="242.8,180.2 239.7,180.2 
							239.1,187.1 242.3,187.1 						"/>
						<polygon fill="#E2DDD8" stroke="#D6D2CF" stroke-width="1.4111" stroke-miterlimit="10" points="236.6,212.1 233.3,212.1 
							232.7,218.9 236,218.9 						"/>
						<polygon fill="#E2DDD8" stroke="#D6D2CF" stroke-width="1.4111" stroke-miterlimit="10" points="226.9,203.4 227.3,198.6 
							230.5,198.6 230.1,203.4 229.9,205.5 226.6,205.5 219.5,205.5 219.7,203.4 						"/>
						<polygon fill="#E2DDD8" stroke="#D6D2CF" stroke-width="1.4111" stroke-miterlimit="10" points="219.2,209.4 219,211.6 
							229.3,211.6 229,214 232.3,214 232.7,209.4 						"/>
						<polygon fill="#E2DDD8" stroke="#D6D2CF" stroke-width="1.4111" stroke-miterlimit="10" points="238,205.2 241.9,205.2 
							242.3,200.5 245.5,200.5 245.2,205.2 245,207.4 241.8,207.4 237.8,207.4 237.7,209.1 234.4,209.1 234.6,207.4 234.8,205.2 
													"/>
						<polygon fill="#E2DDD8" stroke="#D6D2CF" stroke-width="1.4111" stroke-miterlimit="10" points="276.9,150 273.6,150 
							273.4,156 274.3,156 276.7,156 279.8,156 283.1,156 285.3,156 288.6,156 288.6,150 285.4,150 285.4,153.6 283.1,153.6 
							283.2,150 279.9,150 279.9,153.6 276.8,153.7 						"/>
						<polygon fill="#E2DDD8" stroke="#D6D2CF" stroke-width="1.4111" stroke-miterlimit="10" points="223,160.8 223.4,160.8 
							224.1,154.8 223.7,154.8 						"/>
						<polygon fill="#E2DDD8" stroke="#D6D2CF" stroke-width="1.4111" stroke-miterlimit="10" points="232.7,162.9 229.3,163 
							229,166.6 226.7,166.6 227.1,163 223.7,163 223.3,166.6 222.3,166.6 222,169 223.1,169 226.4,168.9 228.7,168.9 232.1,168.9 
													"/>
						<polygon fill="#E2DDD8" stroke="#D6D2CF" stroke-width="1.4111" stroke-miterlimit="10" points="322.2,287 322.3,289.4 
							335.5,289.4 335.4,287 						"/>
						<polygon fill="#E2DDD8" stroke="#D6D2CF" stroke-width="1.4111" stroke-miterlimit="10" points="327.6,304.5 327.2,294.4 
							327,291.4 332.2,291.4 338.1,291.4 338.3,294.4 332.3,294.4 332.9,304.5 						"/>
						<polygon fill="#E2DDD8" stroke="#D6D2CF" stroke-width="1.4111" stroke-miterlimit="10" points="295.8,285.6 290.8,285.6 
							290.8,290.9 286.7,290.9 286.8,285.6 286.8,283.2 290.8,283.2 295.8,283.2 295.7,281.3 299.8,281.3 299.8,283.2 299.8,285.6 
													"/>
						<polygon fill="#E2DDD8" stroke="#D6D2CF" stroke-width="1.4111" stroke-miterlimit="10" points="292.4,300.1 296.9,300.1 
							296.9,295.4 300.6,295.4 300.6,300.1 300.6,302.2 296.9,302.2 292.4,302.2 292.4,304 288.7,304 288.7,302.2 288.7,300.1 
													"/>
						<path fill="#E2DDD8" stroke="#D6D2CF" stroke-width="1.4111" stroke-miterlimit="10" d="M285.4,192.3l0,2.3h-0.3l0,2.1h0.3
							l0,0.2h3.2l0-0.2h3.4l0,0.2h3.2l0-0.2h0.3l0-2.1h-0.3l0-2.3h0.3l0-2.1h-0.3l0-0.2h-3.2l0,0.2h-3.3l0-0.2h-3.2l0,0.2h-0.3
							l0,2.1H285.4z M288.6,192.3h3.3l0,2.3h-3.3L288.6,192.3z"/>
						<path fill="#E2DDD8" stroke="#D6D2CF" stroke-width="1.4111" stroke-miterlimit="10" d="M333,260.7l0.1,2.3h-0.3l0.1,2.1h0.3
							l0,0.2h3.5l0-0.2h3.7l0,0.2h3.5l0-0.2h0.3l-0.2-2.1h-0.3l-0.2-2.3h0.3l-0.2-2.1h-0.3l0-0.2h-3.5l0,0.2h-3.7l0-0.2h-3.5l0,0.2
							h-0.3l0.1,2.1H333z M336.5,260.7h3.7l0.2,2.3h-3.7L336.5,260.7z"/>
					</g>
				</g>
				<linearGradient id="SVGID_1_" gradientUnits="userSpaceOnUse" x1="359.7758" y1="306.2085" x2="359.7758" y2="129.4513">
					<stop  offset="0" style="stop-color:#FFFFFF;stop-opacity:0"/>
					<stop  offset="1" style="stop-color:#FFFFFF"/>
				</linearGradient>
				<polygon display="none" fill="url(#SVGID_1_)" points="354.4,306.2 379.9,306.2 359.1,129.5 339.7,129.5 				"/>
				<linearGradient id="SVGID_2_" gradientUnits="userSpaceOnUse" x1="335.0037" y1="306.2085" x2="335.0037" y2="129.4513">
					<stop  offset="0" style="stop-color:#FFFFFF;stop-opacity:0"/>
					<stop  offset="1" style="stop-color:#FFFFFF"/>
				</linearGradient>
				<polygon display="none" fill="url(#SVGID_2_)" points="333.3,306.2 346.3,306.2 333.6,129.5 323.7,129.5 				"/>
			</g>
		</g>
		<g opacity="0.7">
			<linearGradient id="SVGID_3_" gradientUnits="userSpaceOnUse" x1="206.6407" y1="75.4342" x2="206.6407" y2="75.4342">
				<stop  offset="0" style="stop-color:#FFFFFF"/>
				<stop  offset="0.2957" style="stop-color:#FCFCFC"/>
				<stop  offset="0.5225" style="stop-color:#F2F3F4"/>
				<stop  offset="0.7262" style="stop-color:#E2E4E7"/>
				<stop  offset="0.9154" style="stop-color:#CBCFD4"/>
				<stop  offset="1" style="stop-color:#BEC3C9"/>
			</linearGradient>
			<path fill="url(#SVGID_3_)" d="M206.6,75.4"/>
			<linearGradient id="SVGID_4_" gradientUnits="userSpaceOnUse" x1="201.3057" y1="59.1045" x2="201.3057" y2="59.1045">
				<stop  offset="0" style="stop-color:#FFFFFF"/>
				<stop  offset="0.2957" style="stop-color:#FCFCFC"/>
				<stop  offset="0.5225" style="stop-color:#F2F3F4"/>
				<stop  offset="0.7262" style="stop-color:#E2E4E7"/>
				<stop  offset="0.9154" style="stop-color:#CBCFD4"/>
				<stop  offset="1" style="stop-color:#BEC3C9"/>
			</linearGradient>
			<path fill="url(#SVGID_4_)" d="M201.3,59.1"/>
		</g>
	</g>
	<g>
		<path fill="#E74C3C" d="M300.5,25.7c-52.2,0-94.8,41.7-94.8,93.1c0,63.3,94.8,155.1,94.8,155.1s94.8-91.9,94.8-155.1
			C395.3,67.3,352.7,25.7,300.5,25.7z M300.5,25.7C300.4,25.7,300.5,25.7,300.5,25.7L300.5,25.7z"/>
		<g>
			<path fill="#E74C3C" d="M395.3,118.7c0-51.4-42.6-93.1-94.8-93.1c-0.1,0,0.1,0,0,0v248.2C300.5,273.9,395.3,182.1,395.3,118.7"/>
			<path fill="#C0392B" d="M205.7,118.7c0-51.4,42.6-93.1,94.8-93.1c0.1,0-0.1,0,0,0v248.2C300.5,273.9,205.7,182.1,205.7,118.7"/>
		</g>
		<g>
			<path fill="#F1C40F" d="M300.4,53.6c35.4,0,64.2,28.7,64.2,64.2S335.9,182,300.4,182V53.6z"/>
			<path fill="#F39C12" d="M300.5,53.6c-35.4,0-64.2,28.7-64.2,64.2s28.7,64.2,64.2,64.2V53.6z"/>
		</g>
		<g>
			<path fill="#FFFFFF" d="M300.4,64.5c29.5,0,53.4,23.9,53.4,53.4s-23.9,53.4-53.4,53.4V64.5L300.4,64.5z"/>
			<path fill="#F3F0EF" d="M300.5,64.5c-29.5,0-53.4,23.9-53.4,53.4s23.9,53.4,53.4,53.4V64.5z"/>
		</g>
		<polygon fill="#34495E" points="332.8,131.9 311.5,110.6 332.8,110.6 332.8,85.2 293.6,85.2 268.2,85.2 268.2,110.6 268.2,149.7 
			293.6,149.7 293.6,128.7 314.8,149.9 332.8,149.7 		"/>
	</g>
</g>
</svg>
