<?xml version="1.0" encoding="utf-8"?>
<!-- Generator: Adobe Illustrator 17.1.0, SVG Export Plug-In . SVG Version: 6.00 Build 0)  -->
<!DOCTYPE svg PUBLIC "-//W3C//DTD SVG 1.1//EN" "http://www.w3.org/Graphics/SVG/1.1/DTD/svg11.dtd">
<svg version="1.1" id="Objects" xmlns="http://www.w3.org/2000/svg" xmlns:xlink="http://www.w3.org/1999/xlink" x="0px" y="0px"
	 viewBox="0 0 800 800" style="enable-background:new 0 0 800 800;" xml:space="preserve">
<path style="fill:#E74C3C;" d="M400,32.4c-92.3,0-167.5,73.7-167.5,164.5c0,111.8,167.5,274.1,167.5,274.1s167.5-162.3,167.5-274.1
	C567.5,106,492.3,32.4,400,32.4z M400,32.4C399.9,32.4,400,32.4,400,32.4C400,32.4,400,32.4,400,32.4z"/>
<g>
	<g>
		<g>
			<g>
				<path style="fill:#34495E;" d="M137.5,752.6c0,8.3-3.6,12.4-10.9,12.4H91.4c-9.4,0-16.4-3.7-20.9-11.2
					c-3.7-6.1-5.9-14.4-6.3-24.9l-0.3-7.8h5.3l0.3,7.8c0.4,11.4,3.2,19.8,8.8,25c3.9,3.5,8.3,5.2,13.5,5.2h32.7
					c4.2,0,6.4-2.7,6.4-8.1c0-13.5,0-23.5-0.1-30h6.6C137.5,727,137.5,737.4,137.5,752.6z M96.7,714.6h-6.4v-7.8h6.4V714.6z
					 M109.2,714.6h-6.4v-7.8h6.4V714.6z"/>
				<path style="fill:#34495E;" d="M180,765h-14.8c-2.7,0-5.2-1.1-7.5-3.2c-2.8-2.5-4.2-5.8-4.2-9.9l-0.4-65h6.3L160,751
					c0,4.4,3.5,8.2,7,8.2h13L180,765L180,765z"/>
				<path style="fill:#34495E;" d="M230.5,742.4c0,14.3-7.2,22.8-19.3,22.6h-33.6v-5.9h19.7c-4.2-4.3-6.3-9.9-6.3-16.8
					c0-14.1,7.2-22.5,19.3-22.5c6.1,0,11.2,2.4,14.9,7.1C228.9,731.2,230.5,736.3,230.5,742.4z M224.1,742.5c0-5.7-1.5-10-4.2-13.2
					c-2.4-2.9-5.4-4.3-9.2-4.3c-3.7,0-6.8,1.5-9,4.3c-2.4,3.1-3.6,7.6-3.6,13.2c0,5.7,1.5,10,4.2,13.2c2.5,2.9,5.5,4.3,9.2,4.3
					c3.7,0,6.8-1.5,9-4.3C222.9,752.6,224.1,748.1,224.1,742.5z"/>
				<path style="fill:#34495E;" d="M299,765h-54l1.8-5.9h33.3c-0.4-8.8-2.3-16.2-5.8-22.6c-3.2-6-7.1-9.4-11.3-10v-5.4
					c5.7,0.6,10.5,3.9,14.6,9.9c4.7,6.9,7.5,16.2,8.1,28.2H299V765z"/>
				<path style="fill:#34495E;" d="M367.5,765H350h-53.2v-5.9h51.9c-0.1-10.4-2.5-18.5-7.2-24.7c-4.4-5.9-10-8.9-16.9-8.9
					c-5.4,0-10.7,1.5-16,4.3l-2.5-5.2c5.4-3.1,11.4-4.7,18.1-4.7c10.2,0,18.1,4,23.5,12c4.4,6.6,7,15.7,7.8,27.1h12L367.5,765
					L367.5,765z M328.5,708.2h-6.4v-7.8h6.4V708.2z"/>
				<path style="fill:#34495E;" d="M394.2,749.6c0,4.7-1.2,8.4-3.5,11.2c-2.7,2.8-6.3,4.2-11.1,4.2h-14.2v-5.9h13.1
					c6.3,0,9.3-3.2,9.3-9.6c0-16.9-0.1-37.7-0.3-62.6h6.4C394,703.6,394.1,724.4,394.2,749.6z"/>
				<path style="fill:#34495E;" d="M416.7,765h-6.3l-0.6-78.1h6.3L416.7,765z"/>
				<path style="fill:#34495E;" d="M507.3,765h-13.2c-4,0-7-1.6-9-4.7c-1.8-2.7-2.8-5.9-2.7-9.6h-17.8c-9,0-13.6-5.4-13.6-16.1
					c0-7.3,1.9-12.9,5.7-16.6c2.9-3,6.4-4.6,10.6-4.6c5.2,0,10,2.3,14.6,6.9v-6h6.1l0.1,37.2c0,5.2,2,7.8,6,7.8h13.2L507.3,765
					L507.3,765z M481.9,745.2l-0.1-19c-0.9-2.3-2.5-4.1-4.7-5.7c-2.4-1.7-4.9-2.5-7.7-2.5c-3.4,0-6.1,1.5-8.3,4.2
					c-2.3,3.1-3.5,7.3-3.5,12.8c0,6.9,2.7,10.2,8.1,10.2H481.9z M469.9,701.4h-6.4v-7.7h6.4V701.4z M482.6,701.4h-6.5v-7.7h6.5
					V701.4z"/>
				<path style="fill:#34495E;" d="M598.1,765h-92.9v-5.9h12l-0.3-65.5h6.3l-0.9,58c4.7-11.7,10.9-20.2,18.6-25.4
					c5.4-3.6,10.9-5.4,16.8-5.4c0.7,0,1.5,0,2.1,0.1c15.3,1.6,23.5,14.3,24.6,38.2h13.7L598.1,765L598.1,765z M578.4,759.1
					c-0.1-6.1-0.8-11.3-2.1-15.8c-3-10.7-8.5-16.4-16.4-17c-5.9-0.4-11.6,1.2-17,4.8c-8.1,5.3-14.7,14.6-19.8,27.9H578.4z"/>
				<path style="fill:#34495E;" d="M624.6,749.6c0,4.7-1.2,8.4-3.5,11.2c-2.5,2.8-6.3,4.2-11.1,4.2h-14.2v-5.9h13.1
					c6.3,0,9.4-3.2,9.3-9.6c0-5.4-0.1-14.9-0.3-28.4h6.4L624.6,749.6z M608.5,784.8h-6.4V777h6.4V784.8z M621.1,784.8h-6.4V777h6.4
					V784.8z"/>
				<path style="fill:#34495E;" d="M677.3,765h-10.1c-3.2,0-6-1.1-8.4-3.4c-1.8-1.7-3.1-3.7-3.9-6.3c-0.4,9.7-3.1,17.8-8.5,24.4
					c-5.4,6.6-12.4,10.4-21.2,11.2c-0.6-1.1-1.5-2.9-2.5-5.4c7.6-0.4,13.8-3.6,18.8-9.6c4.7-5.7,7-12.6,7-20.9l-0.1-33.9h6.4
					l0.3,23.7c0,4.3,1.3,8,4,10.7c2.3,2.5,4.8,3.7,7.5,3.7h10.9L677.3,765L677.3,765z"/>
				<path style="fill:#34495E;" d="M733.9,765h-58.7v-5.9H727c-0.1-10.4-2.5-18.5-7.2-24.7c-4.4-5.9-10-8.9-16.9-8.9
					c-5.4,0-10.7,1.5-16,4.3l-2.5-5.2c5.4-3.1,11.4-4.7,18.1-4.7c11.2,0,19.5,4.8,24.8,14.3C731.6,742,733.7,752.3,733.9,765z
					 M706.8,708.2h-6.4v-7.8h6.4V708.2z"/>
			</g>
		</g>
		<g>
			<path style="fill:#34495E;" d="M124.3,613.6c0,7.5-2.9,13.4-8.7,17.7c-5.8,4.3-13.5,6.5-23.1,6.5c-11.5,0-20.4-1.2-26.5-3.6V628
				c6.8,2.7,15.5,4.1,26,4.1c7.7,0,13.9-1.7,18.4-5.1c4.6-3.4,6.8-7.8,6.8-13.2c0-3.4-0.7-6.2-2.3-8.4c-1.5-2.3-4-4.2-7.4-6.1
				s-8.4-3.8-15-6c-9.6-3.1-16.3-6.5-20-10.2c-3.7-3.7-5.5-8.5-5.5-14.6c0-6.7,2.8-12.1,8.3-16.4s12.7-6.3,21.4-6.3
				c8.8,0,17.2,1.6,25,4.8l-2.4,5.4c-7.9-3.1-15.3-4.7-22.5-4.7c-7,0-12.5,1.5-16.6,4.6c-4.2,3.1-6.3,7.3-6.3,12.6
				c0,3.3,0.6,6,1.9,8.2c1.3,2.1,3.4,4,6.2,5.7s7.9,3.7,14.9,6.1c7.4,2.4,12.9,4.8,16.6,7c3.7,2.3,6.4,4.8,8.1,7.7
				C123.4,606.1,124.3,609.5,124.3,613.6z"/>
			<path style="fill:#34495E;" d="M171,637.9c-10.2,0-18.2-3-23.9-9c-5.7-6-8.6-14.3-8.6-25.1c0-10.6,2.8-19.1,8.3-25.5
				c5.5-6.4,12.9-9.6,22.3-9.6c8.3,0,14.8,2.7,19.6,8.2c4.8,5.5,7.2,12.9,7.2,22.3v4.9h-50.6c0.1,9.2,2.4,16.1,6.8,20.9
				c4.4,4.8,10.7,7.2,18.9,7.2c4,0,7.5-0.3,10.6-0.8c3-0.5,6.9-1.7,11.5-3.5v5.5c-4,1.6-7.6,2.7-11,3.4
				C178.8,637.6,175,637.9,171,637.9z M169.1,574.2c-6.8,0-12.2,2.1-16.3,6.3c-4.1,4.2-6.5,10.3-7.2,18.3h43.4
				c0-7.7-1.8-13.8-5.3-18.1C180.3,576.4,175.4,574.2,169.1,574.2z"/>
			<path style="fill:#34495E;" d="M242.9,568.8c3,0,6.2,0.3,9.6,0.8l-1.2,5.8c-2.9-0.7-6-1-9.1-1c-6,0-10.9,2.4-14.7,7.2
				c-3.8,4.8-5.8,10.9-5.8,18.3v36.7h-6.4v-66.6h5.4l0.6,12h0.5c2.9-4.9,6-8.3,9.2-10.3C234.3,569.8,238.3,568.8,242.9,568.8z"/>
			<path style="fill:#34495E;" d="M282.1,636.7L255,570.1h6.6l18.2,45.3c2.4,5.8,4.2,10.9,5.4,15.2h0.4c1.8-5.5,3.6-10.7,5.4-15.3
				l18.2-45.1h6.6l-27.1,66.6H282.1z"/>
			<path style="fill:#34495E;" d="M326.6,551.6c0-3.9,1.4-5.9,4.1-5.9c1.3,0,2.4,0.5,3.1,1.5c0.7,1,1.2,2.5,1.2,4.3
				c0,1.8-0.4,3.3-1.2,4.3c-0.7,1-1.8,1.6-3.1,1.6C327.9,557.6,326.6,555.6,326.6,551.6z M333.9,636.7h-6.4v-66.6h6.4V636.7z"/>
			<path style="fill:#34495E;" d="M385.4,637.9c-10.1,0-17.9-3-23.6-9c-5.7-6-8.5-14.4-8.5-25.1c0-11,2.9-19.6,8.8-25.8
				c5.9-6.1,14-9.2,24.2-9.2c6.1,0,11.9,1,17.4,3l-1.7,5.4c-6.1-1.9-11.4-2.9-15.8-2.9c-8.6,0-15.1,2.5-19.6,7.6
				c-4.4,5-6.6,12.3-6.6,21.8c0,9,2.2,16,6.6,21.1c4.4,5.1,10.6,7.6,18.6,7.6c6.4,0,12.3-1.1,17.7-3.2v5.7
				C398.6,636.9,392.7,637.9,385.4,637.9z"/>
			<path style="fill:#34495E;" d="M448.6,637.9c-10.2,0-18.2-3-23.9-9c-5.7-6-8.6-14.3-8.6-25.1c0-10.6,2.8-19.1,8.3-25.5
				c5.5-6.4,12.9-9.6,22.3-9.6c8.3,0,14.8,2.7,19.6,8.2c4.8,5.5,7.2,12.9,7.2,22.3v4.9h-50.6c0.1,9.2,2.4,16.1,6.8,20.9
				c4.4,4.8,10.7,7.2,18.9,7.2c4,0,7.5-0.3,10.6-0.8c3-0.5,6.9-1.7,11.5-3.5v5.5c-4,1.6-7.6,2.7-11,3.4
				C456.4,637.6,452.6,637.9,448.6,637.9z M446.7,574.2c-6.8,0-12.2,2.1-16.3,6.3c-4.1,4.2-6.5,10.3-7.2,18.3h43.4
				c0-7.7-1.8-13.8-5.3-18.1C457.9,576.4,452.9,574.2,446.7,574.2z"/>
			<path style="fill:#34495E;" d="M528.9,636.7v-89.5h6.6v89.6L528.9,636.7L528.9,636.7z"/>
			<path style="fill:#34495E;" d="M609.5,636.7v-43.2c0-6.7-1.5-11.6-4.4-14.6c-3-3-7.6-4.6-13.8-4.6c-8.4,0-14.6,2-18.4,6
				c-3.9,4-5.9,10.5-5.9,19.6v36.7h-6.4v-66.6h5.4l1.2,9.1h0.4c4.6-7,12.7-10.4,24.3-10.4c15.9,0,23.9,8.1,23.9,24.3v43.6H609.5z"/>
			<path style="fill:#34495E;" d="M664.7,575.4h-16.5v61.3h-6.4v-61.3h-13.1v-3.6l13-2.3v-5.1c0-8.2,1.6-14.1,4.8-18
				c3.1-3.8,8.3-5.7,15.5-5.7c3.9,0,7.7,0.6,11.6,1.7l-1.5,5.3c-3.5-1-6.9-1.5-10.3-1.5c-5,0-8.5,1.4-10.6,4.2s-3.1,7.3-3.1,13.6
				v6.2h16.5L664.7,575.4L664.7,575.4z"/>
			<path style="fill:#34495E;" d="M736.3,603.3c0,10.9-2.8,19.4-8.3,25.4c-5.5,6.1-13.2,9.2-23,9.2c-6.2,0-11.6-1.4-16.3-4.2
				c-4.7-2.8-8.3-6.9-10.8-12.1c-2.5-5.3-3.8-11.4-3.8-18.3c0-10.9,2.8-19.3,8.3-25.4c5.5-6.1,13.2-9.1,22.9-9.1
				c9.6,0,17.2,3.1,22.7,9.2C733.6,584.2,736.3,592.6,736.3,603.3z M680.9,603.3c0,9.2,2.1,16.3,6.4,21.4c4.2,5.1,10.3,7.7,18,7.7
				s13.8-2.6,18-7.7c4.2-5.1,6.4-12.2,6.4-21.4c0-9.2-2.1-16.3-6.4-21.4c-4.3-5.1-10.3-7.6-18.1-7.6s-13.7,2.5-17.9,7.6
				C683,587,680.9,594.1,680.9,603.3z"/>
		</g>
		<g>
			<rect x="52.2" y="659.7" style="fill:#34495E;" width="695.6" height="5.8"/>
		</g>
	</g>
</g>
<g>
	<path style="fill:#E74C3C;" d="M567.5,196.8c0-90.8-75.2-164.5-167.5-164.5c-0.1,0,0.1,0,0,0v438.6
		C400,470.9,567.5,308.7,567.5,196.8"/>
	<path style="fill:#C0392B;" d="M232.5,196.8c0-90.8,75.2-164.5,167.5-164.5c0.1,0-0.1,0,0,0v438.6
		C400,470.9,232.5,308.7,232.5,196.8"/>
</g>
<g>
	<path style="fill:#F1C40F;" d="M399.9,81.8c62.6,0,113.4,50.8,113.4,113.4s-50.8,113.4-113.4,113.4V81.8z"/>
	<path style="fill:#F39C12;" d="M400,81.8c-62.6,0-113.4,50.8-113.4,113.4S337.4,308.7,400,308.7V81.8z"/>
</g>
<g>
	<path style="fill:#FFFFFF;" d="M399.9,101c52.1,0,94.3,42.2,94.3,94.3s-42.2,94.3-94.3,94.3V101z"/>
	<path style="fill:#F3F0EF;" d="M400,101c-52.1,0-94.3,42.2-94.3,94.3s42.2,94.3,94.3,94.3V101z"/>
</g>
<polygon style="fill:#34495E;" points="457,220 419.4,182.5 457,182.5 457,137.6 387.8,137.6 342.9,137.6 342.9,182.5 342.9,251.6 
	387.8,251.6 387.8,214.4 425.2,251.8 457,251.6 "/>
</svg>
