<?xml version="1.0" encoding="utf-8"?>
<!-- Generator: Adobe Illustrator 17.1.0, SVG Export Plug-In . SVG Version: 6.00 Build 0)  -->
<!DOCTYPE svg PUBLIC "-//W3C//DTD SVG 1.1//EN" "http://www.w3.org/Graphics/SVG/1.1/DTD/svg11.dtd">
<svg version="1.1" id="Objects" xmlns="http://www.w3.org/2000/svg" xmlns:xlink="http://www.w3.org/1999/xlink" x="0px" y="0px"
	 viewBox="0 284 612 224" enable-background="new 0 284 612 224" xml:space="preserve">
<g>
	<g>
		<path fill="#34495E" d="M259.9,448.6c0,4.9-2.1,7.4-6.5,7.4h-20.8c-5.6,0-9.7-2.2-12.4-6.6c-2.2-3.6-3.5-8.6-3.7-14.8l-0.1-4.6
			h3.1l0.1,4.6c0.2,6.8,1.9,11.8,5.2,14.8c2.3,2.1,4.9,3.1,8,3.1h19.4c2.5,0,3.8-1.6,3.8-4.8c0-8,0-13.9-0.1-17.8h3.9
			C259.9,433.4,259.9,439.6,259.9,448.6z M235.7,426.1H232v-4.6h3.8V426.1z M243.2,426.1h-3.8v-4.6h3.8V426.1z"/>
		<path fill="#34495E" d="M285.1,456h-8.8c-1.6,0-3.1-0.6-4.4-1.9c-1.6-1.5-2.5-3.4-2.5-5.9l-0.2-38.5h3.7l0.4,38
			c0,2.6,2.1,4.9,4.1,4.9h7.7V456z"/>
		<path fill="#34495E" d="M315.1,442.5c0,8.5-4.3,13.5-11.4,13.4h-19.9v-3.5h11.7c-2.5-2.6-3.7-5.9-3.7-9.9
			c0-8.4,4.3-13.3,11.4-13.3c3.6,0,6.6,1.4,8.9,4.2C314.1,435.9,315.1,439,315.1,442.5z M311.3,442.6c0-3.4-0.9-5.9-2.5-7.9
			c-1.4-1.7-3.2-2.6-5.4-2.6c-2.2,0-4,0.9-5.4,2.6c-1.4,1.9-2.1,4.5-2.1,7.9c0,3.4,0.9,5.9,2.5,7.9c1.5,1.7,3.3,2.6,5.4,2.6
			c2.2,0,4-0.9,5.4-2.6C310.6,448.6,311.3,446,311.3,442.6z"/>
		<path fill="#34495E" d="M355.7,456h-32l1.1-3.5h19.8c-0.2-5.2-1.4-9.6-3.4-13.4c-1.9-3.6-4.2-5.6-6.7-5.9v-3.2
			c3.4,0.4,6.2,2.3,8.6,5.9c2.8,4.1,4.4,9.6,4.8,16.7h7.9V456z"/>
		<path fill="#34495E" d="M396.3,456H386h-31.5v-3.5h30.8c-0.1-6.1-1.5-11-4.3-14.6c-2.6-3.5-5.9-5.3-10-5.3c-3.2,0-6.4,0.9-9.5,2.6
			l-1.5-3.1c3.2-1.9,6.8-2.8,10.7-2.8c6.1,0,10.7,2.4,13.9,7.1c2.6,3.9,4.1,9.3,4.6,16.1h7.1V456z M373.2,422.3h-3.8v-4.6h3.8V422.3
			z"/>
		<path fill="#34495E" d="M412.2,446.8c0,2.8-0.7,5-2.1,6.6c-1.6,1.6-3.7,2.5-6.6,2.5h-8.4v-3.5h7.8c3.7,0,5.5-1.9,5.5-5.7
			c0-10-0.1-22.3-0.1-37.1h3.8C412,419.6,412.1,431.9,412.2,446.8z"/>
		<path fill="#34495E" d="M425.5,456h-3.7l-0.4-46.3h3.7L425.5,456z"/>
		<path fill="#34495E" d="M468.7,456h-7.9c-2.4,0-4.1-0.9-5.4-2.8c-1.1-1.6-1.6-3.5-1.6-5.7h-10.6c-5.4,0-8.1-3.2-8.1-9.6
			c0-4.4,1.1-7.6,3.4-9.9c1.7-1.8,3.8-2.7,6.3-2.7c3.1,0,5.9,1.4,8.6,4.1v-3.6h3.6l0.1,22.1c0,3.1,1.2,4.6,3.6,4.6h7.9V456z
			 M453.6,444.3l-0.1-11.3c-0.6-1.4-1.5-2.4-2.8-3.4c-1.4-1-2.9-1.5-4.6-1.5c-2,0-3.6,0.9-4.9,2.5c-1.4,1.9-2.1,4.4-2.1,7.6
			c0,4.1,1.6,6.1,4.8,6.1H453.6z M446.5,418.3h-3.8v-4.6h3.8V418.3z M454,418.3h-3.9v-4.6h3.9V418.3z"/>
		<path fill="#34495E" d="M522.5,456h-55.1v-3.5h7.1l-0.1-38.8h3.7l-0.6,34.4c2.8-6.9,6.5-12,11.1-15.1c3.2-2.1,6.5-3.2,9.9-3.2
			c0.4,0,0.9,0,1.3,0.1c9.1,0.9,13.9,8.5,14.6,22.6h8.1V456z M510.8,452.5c-0.1-3.6-0.5-6.7-1.3-9.4c-1.8-6.4-5.1-9.7-9.7-10.1
			c-3.5-0.2-6.9,0.7-10.1,2.9c-4.8,3.1-8.7,8.6-11.8,16.6H510.8z"/>
		<path fill="#34495E" d="M538.2,446.8c0,2.8-0.7,5-2.1,6.6c-1.5,1.6-3.7,2.5-6.6,2.5h-8.4v-3.5h7.8c3.7,0,5.6-1.9,5.5-5.7
			c0-3.2-0.1-8.9-0.1-16.8h3.8L538.2,446.8z M528.6,467.7h-3.8V463h3.8V467.7z M536.1,467.7h-3.8V463h3.8V467.7z"/>
		<path fill="#34495E" d="M569.4,456h-6c-1.9,0-3.6-0.6-5-2c-1.1-1-1.9-2.2-2.3-3.7c-0.2,5.8-1.9,10.6-5.1,14.5
			c-3.2,3.9-7.4,6.1-12.6,6.6c-0.4-0.6-0.9-1.7-1.5-3.2c4.5-0.2,8.2-2.1,11.1-5.7c2.8-3.4,4.1-7.5,4.1-12.4l-0.1-20.1h3.8l0.1,14.1
			c0,2.6,0.8,4.7,2.4,6.4c1.4,1.5,2.9,2.2,4.4,2.2h6.5V456z"/>
		<path fill="#34495E" d="M603,456h-34.8v-3.5h30.8c-0.1-6.1-1.5-11-4.3-14.6c-2.6-3.5-5.9-5.3-10-5.3c-3.2,0-6.4,0.9-9.5,2.6
			l-1.5-3.1c3.2-1.9,6.8-2.8,10.7-2.8c6.6,0,11.6,2.9,14.7,8.5C601.6,442.3,602.9,448.4,603,456z M586.9,422.3h-3.8v-4.6h3.8V422.3z
			"/>
	</g>
</g>
<g>
	<g>
		<path fill="#34495E" d="M252.6,365.2c0,4.5-1.7,8.1-5.2,10.7c-3.5,2.6-8.1,3.9-13.9,3.9c-6.9,0-12.3-0.7-16-2.2v-3.8
			c4.1,1.6,9.3,2.5,15.7,2.5c4.7,0,8.4-1,11.1-3c2.7-2,4.1-4.7,4.1-8c0-2-0.5-3.7-1.4-5.1c-0.9-1.3-2.4-2.6-4.4-3.7
			c-2-1.1-5-2.3-9-3.6c-5.8-1.9-9.8-3.9-12-6.1c-2.2-2.2-3.3-5.1-3.3-8.8c0-4,1.7-7.3,5-9.9c3.3-2.5,7.6-3.8,12.8-3.8
			c5.3,0,10.3,1,15,2.9l-1.4,3.2c-4.7-1.9-9.2-2.8-13.5-2.8c-4.2,0-7.5,0.9-10,2.8c-2.5,1.8-3.7,4.3-3.7,7.5c0,2,0.4,3.6,1.1,4.9
			c0.8,1.3,2,2.4,3.7,3.4c1.7,1,4.7,2.2,8.9,3.7c4.4,1.4,7.8,2.9,10,4.2c2.2,1.4,3.9,2.9,4.9,4.6
			C252.1,360.6,252.6,362.7,252.6,365.2z"/>
		<path fill="#34495E" d="M280.7,379.8c-6.1,0-10.9-1.8-14.4-5.4c-3.4-3.6-5.1-8.6-5.1-15.1c0-6.4,1.7-11.5,5-15.3
			c3.3-3.8,7.8-5.8,13.4-5.8c5,0,8.9,1.6,11.8,4.9c2.9,3.3,4.3,7.8,4.3,13.4v2.9h-30.4c0.1,5.5,1.4,9.7,4.1,12.6
			c2.7,2.9,6.5,4.3,11.4,4.3c2.4,0,4.5-0.2,6.4-0.5c1.8-0.3,4.1-1,6.9-2.1v3.3c-2.4,1-4.6,1.7-6.6,2
			C285.4,379.6,283.1,379.8,280.7,379.8z M279.6,341.5c-4.1,0-7.3,1.3-9.8,3.8c-2.5,2.5-3.9,6.2-4.3,11h26.1c0-4.6-1.1-8.3-3.2-10.9
			C286.3,342.8,283.3,341.5,279.6,341.5z"/>
		<path fill="#34495E" d="M323.9,338.2c1.8,0,3.7,0.2,5.7,0.5l-0.7,3.5c-1.8-0.4-3.6-0.6-5.5-0.6c-3.6,0-6.6,1.4-8.9,4.3
			c-2.3,2.9-3.5,6.6-3.5,11V379h-3.8v-40h3.3l0.4,7.2h0.3c1.7-2.9,3.6-5,5.6-6.2C318.7,338.8,321.1,338.2,323.9,338.2z"/>
		<path fill="#34495E" d="M347.5,379l-16.3-40h4l10.9,27.2c1.4,3.5,2.5,6.5,3.3,9.1h0.2c1.1-3.3,2.1-6.4,3.3-9.2l10.9-27.1h4
			l-16.3,40H347.5z"/>
		<path fill="#34495E" d="M374.2,327.9c0-2.4,0.8-3.5,2.4-3.5c0.8,0,1.4,0.3,1.9,0.9c0.5,0.6,0.7,1.5,0.7,2.6c0,1.1-0.2,2-0.7,2.6
			c-0.5,0.6-1.1,1-1.9,1C375,331.5,374.2,330.3,374.2,327.9z M378.6,379h-3.8v-40h3.8V379z"/>
		<path fill="#34495E" d="M409.6,379.8c-6,0-10.8-1.8-14.2-5.4c-3.4-3.6-5.1-8.6-5.1-15.1c0-6.6,1.8-11.8,5.3-15.5
			c3.5-3.7,8.4-5.5,14.6-5.5c3.7,0,7.1,0.6,10.5,1.8l-1,3.2c-3.7-1.2-6.8-1.7-9.5-1.7c-5.2,0-9.1,1.5-11.8,4.5c-2.7,3-4,7.4-4,13.1
			c0,5.4,1.3,9.6,4,12.7c2.7,3.1,6.4,4.6,11.2,4.6c3.8,0,7.4-0.7,10.7-2v3.4C417.5,379.1,414,379.8,409.6,379.8z"/>
		<path fill="#34495E" d="M447.6,379.8c-6.1,0-10.9-1.8-14.4-5.4c-3.4-3.6-5.1-8.6-5.1-15.1c0-6.4,1.7-11.5,5-15.3
			c3.3-3.8,7.8-5.8,13.4-5.8c5,0,8.9,1.6,11.8,4.9c2.9,3.3,4.3,7.8,4.3,13.4v2.9h-30.4c0.1,5.5,1.4,9.7,4.1,12.6
			c2.7,2.9,6.5,4.3,11.4,4.3c2.4,0,4.5-0.2,6.3-0.5c1.8-0.3,4.1-1,6.9-2.1v3.3c-2.4,1-4.6,1.7-6.6,2
			C452.2,379.6,450,379.8,447.6,379.8z M446.5,341.5c-4.1,0-7.3,1.3-9.8,3.8c-2.5,2.5-3.9,6.2-4.3,11h26.1c0-4.6-1.1-8.3-3.2-10.9
			C453.1,342.8,450.2,341.5,446.5,341.5z"/>
		<path fill="#34495E" d="M476.6,379v-53.8h4V379H476.6z"/>
		<path fill="#34495E" d="M525.1,379v-26c0-4-0.9-7-2.7-8.8c-1.8-1.8-4.6-2.7-8.3-2.7c-5,0-8.7,1.2-11.1,3.6
			c-2.3,2.4-3.5,6.3-3.5,11.8V379h-3.8v-40h3.3l0.7,5.5h0.2c2.7-4.2,7.6-6.3,14.6-6.3c9.6,0,14.4,4.9,14.4,14.6V379H525.1z"/>
		<path fill="#34495E" d="M558.2,342.2h-9.9V379h-3.8v-36.9h-7.8V340l7.8-1.4v-3.1c0-4.9,1-8.5,2.9-10.8c1.9-2.3,5-3.4,9.3-3.4
			c2.3,0,4.7,0.3,7,1l-0.9,3.2c-2.1-0.6-4.1-0.9-6.2-0.9c-3,0-5.1,0.8-6.4,2.5c-1.3,1.7-1.9,4.4-1.9,8.2v3.7h9.9V342.2z"/>
		<path fill="#34495E" d="M601.3,359c0,6.5-1.7,11.6-5,15.3c-3.3,3.7-7.9,5.5-13.8,5.5c-3.7,0-7-0.8-9.8-2.5c-2.8-1.7-5-4.1-6.5-7.3
			c-1.5-3.2-2.3-6.8-2.3-11c0-6.5,1.7-11.6,5-15.3c3.3-3.6,7.9-5.5,13.7-5.5c5.8,0,10.4,1.8,13.7,5.5
			C599.7,347.5,601.3,352.5,601.3,359z M568,359c0,5.5,1.3,9.8,3.8,12.9c2.6,3.1,6.2,4.6,10.8,4.6s8.3-1.5,10.8-4.6
			c2.5-3.1,3.8-7.4,3.8-12.9c0-5.5-1.3-9.8-3.9-12.9c-2.6-3-6.2-4.6-10.9-4.6c-4.7,0-8.3,1.5-10.8,4.5
			C569.3,349.1,568,353.4,568,359z"/>
	</g>
</g>
<g>
	<g>
		<rect x="209.3" y="392.8" fill="#34495E" width="399.1" height="3.5"/>
	</g>
</g>
<path fill="#E74C3C" d="M81.5,291.8c-43.2,0-78.5,34.5-78.5,77c0,52.4,78.5,128.4,78.5,128.4s78.5-76,78.5-128.4
	C160,326.3,124.8,291.8,81.5,291.8z M81.5,291.8C81.5,291.8,81.5,291.8,81.5,291.8C81.6,291.8,81.6,291.8,81.5,291.8z"/>
<g>
	<path fill="#E74C3C" d="M160,368.9c0-42.5-35.2-77-78.5-77c-0.1,0,0.1,0,0,0v205.4C81.5,497.2,160,421.2,160,368.9"/>
	<path fill="#C0392B" d="M3.1,368.9c0-42.5,35.2-77,78.5-77c0.1,0-0.1,0,0,0v205.4C81.5,497.2,3.1,421.2,3.1,368.9"/>
</g>
<g>
	<path fill="#F1C40F" d="M81.5,315c29.3,0,53.1,23.8,53.1,53.1s-23.8,53.1-53.1,53.1V315z"/>
	<path fill="#F39C12" d="M81.6,315c-29.3,0-53.1,23.8-53.1,53.1s23.8,53.1,53.1,53.1V315z"/>
</g>
<g>
	<path fill="#FFFFFF" d="M81.5,324c24.4,0,44.2,19.8,44.2,44.2c0,24.4-19.8,44.2-44.2,44.2V324z"/>
	<path fill="#F3F0EF" d="M81.6,324c-24.4,0-44.2,19.8-44.2,44.2c0,24.4,19.8,44.2,44.2,44.2V324z"/>
</g>
<polygon fill="#34495E" points="108.2,379.7 90.6,362.1 108.3,362.1 108.3,341.1 75.8,341.1 54.8,341.1 54.8,362.1 54.8,394.5 
	75.8,394.5 75.8,377.1 93.4,394.6 108.2,394.5 "/>
</svg>
