<?xml version="1.0" encoding="utf-8"?>
<!-- Generator: Adobe Illustrator 17.1.0, SVG Export Plug-In . SVG Version: 6.00 Build 0)  -->
<!DOCTYPE svg PUBLIC "-//W3C//DTD SVG 1.1//EN" "http://www.w3.org/Graphics/SVG/1.1/DTD/svg11.dtd">
<svg version="1.1" id="Objects" xmlns="http://www.w3.org/2000/svg" xmlns:xlink="http://www.w3.org/1999/xlink" x="0px" y="0px"
	 viewBox="0 0 612 792" enable-background="new 0 0 612 792" xml:space="preserve">
<path fill="#E74C3C" d="M306,114.8c-70.6,0-128.1,56.4-128.1,125.8c0,85.5,128.1,209.7,128.1,209.7s128.1-124.2,128.1-209.7
	C434.1,171.1,376.6,114.8,306,114.8z M306,114.8C305.9,114.8,306,114.8,306,114.8L306,114.8z"/>
<g>
	<path fill="#E74C3C" d="M434.1,240.6c0-69.5-57.5-125.8-128.1-125.8c-0.1,0,0.1,0,0,0v335.5C306,450.2,434.1,326.2,434.1,240.6"/>
	<path fill="#C0392B" d="M177.9,240.6c0-69.5,57.5-125.8,128.1-125.8c0.1,0-0.1,0,0,0v335.5C306,450.2,177.9,326.2,177.9,240.6"/>
</g>
<g>
	<path fill="#F1C40F" d="M305.9,152.6c47.9,0,86.8,38.9,86.8,86.8s-38.9,86.8-86.8,86.8V152.6z"/>
	<path fill="#F39C12" d="M306,152.6c-47.9,0-86.8,38.9-86.8,86.8s38.9,86.8,86.8,86.8V152.6z"/>
</g>
<g>
	<path fill="#FFFFFF" d="M305.9,167.3c39.9,0,72.1,32.3,72.1,72.1s-32.3,72.1-72.1,72.1L305.9,167.3L305.9,167.3z"/>
	<path fill="#F3F0EF" d="M306,167.3c-39.9,0-72.1,32.3-72.1,72.1s32.3,72.1,72.1,72.1V167.3z"/>
</g>
<polygon fill="#34495E" points="349.6,258.3 320.8,229.6 349.6,229.6 349.6,195.3 296.7,195.3 262.3,195.3 262.3,229.6 262.3,282.5 
	296.7,282.5 296.7,254 325.3,282.6 349.6,282.5 "/>
<g>
	<g>
		<path fill="#34495E" d="M104.8,669.1c0,6.6-2.9,9.8-8.7,9.8H68.2c-7.5,0-13-3-16.6-8.9c-3-4.9-4.7-11.5-5-19.8l-0.2-6.2h4.2
			l0.2,6.2c0.3,9.1,2.6,15.8,7,19.9c3.1,2.8,6.6,4.1,10.7,4.1h26c3.3,0,5.1-2.1,5.1-6.4c0-10.7,0-18.6-0.1-23.8h5.3
			C104.8,648.7,104.8,657,104.8,669.1z M72.4,638.8h-5.1v-6.2h5.1V638.8z M82.4,638.8h-5.1v-6.2h5.1V638.8z"/>
		<path fill="#34495E" d="M138.6,678.9h-11.8c-2.1,0-4.1-0.9-5.9-2.6c-2.2-2-3.3-4.6-3.3-7.8l-0.3-51.6h5l0.5,51
			c0,3.5,2.8,6.5,5.5,6.5h10.3V678.9z"/>
		<path fill="#34495E" d="M178.7,660.9c0,11.4-5.7,18.1-15.3,18h-26.7v-4.7h15.7c-3.3-3.4-5-7.8-5-13.3c0-11.2,5.7-17.9,15.3-17.9
			c4.9,0,8.9,1.9,11.9,5.6C177.4,652,178.7,656.2,178.7,660.9z M173.7,661c0-4.5-1.1-7.9-3.3-10.5c-1.9-2.3-4.3-3.4-7.3-3.4
			c-3,0-5.4,1.1-7.2,3.4c-1.9,2.5-2.9,6-2.9,10.5c0,4.5,1.1,7.9,3.3,10.5c2,2.3,4.4,3.4,7.3,3.4c3,0,5.4-1.1,7.2-3.4
			C172.7,669.1,173.7,665.5,173.7,661z"/>
		<path fill="#34495E" d="M233.1,678.9h-42.9l1.4-4.7h26.5c-0.3-7-1.8-12.9-4.6-18c-2.6-4.8-5.6-7.5-9-7.9V644
			c4.5,0.5,8.3,3.1,11.6,7.8c3.7,5.5,5.9,12.9,6.4,22.4h10.6V678.9z"/>
		<path fill="#34495E" d="M287.5,678.9h-13.9h-42.3v-4.7h41.2c-0.1-8.2-2-14.7-5.7-19.6c-3.5-4.7-7.9-7.1-13.4-7.1
			c-4.3,0-8.5,1.1-12.7,3.4l-2-4.1c4.3-2.5,9.1-3.7,14.3-3.7c8.1,0,14.3,3.2,18.6,9.6c3.5,5.3,5.5,12.4,6.2,21.5h9.6V678.9z
			 M256.5,633.8h-5.1v-6.2h5.1V633.8z"/>
		<path fill="#34495E" d="M308.7,666.7c0,3.7-1,6.7-2.8,8.9c-2.1,2.2-5,3.3-8.8,3.3h-11.3v-4.7h10.4c5,0,7.4-2.6,7.4-7.6
			c0-13.4-0.1-29.9-0.2-49.7h5.1C308.5,630.1,308.6,646.7,308.7,666.7z"/>
		<path fill="#34495E" d="M326.6,678.9h-5l-0.5-62h5L326.6,678.9z"/>
		<path fill="#34495E" d="M384.4,678.9h-10.5c-3.2,0-5.5-1.2-7.2-3.7c-1.4-2.1-2.2-4.7-2.1-7.6h-14.1c-7.2,0-10.8-4.3-10.8-12.8
			c0-5.8,1.5-10.2,4.5-13.2c2.3-2.4,5.1-3.6,8.4-3.6c4.1,0,7.9,1.8,11.6,5.4v-4.8h4.9l0.1,29.5c0,4.1,1.6,6.2,4.8,6.2h10.5V678.9z
			 M364.2,663.2l-0.1-15.1c-0.8-1.8-2-3.3-3.7-4.5c-1.9-1.3-3.9-2-6.1-2c-2.7,0-4.9,1.1-6.6,3.3c-1.8,2.5-2.8,5.8-2.8,10.1
			c0,5.4,2.1,8.1,6.4,8.1H364.2z M354.7,628.4h-5.1v-6.1h5.1V628.4z M364.7,628.4h-5.2v-6.1h5.2V628.4z"/>
		<path fill="#34495E" d="M456.5,678.9h-73.8v-4.7h9.6l-0.2-52h5l-0.8,46.1c3.7-9.3,8.7-16.1,14.8-20.2c4.3-2.9,8.7-4.3,13.3-4.3
			c0.6,0,1.1,0,1.7,0.1c12.1,1.2,18.6,11.4,19.5,30.3h10.9V678.9z M440.8,674.2c-0.1-4.9-0.7-9-1.7-12.5c-2.4-8.5-6.8-13-13-13.5
			c-4.7-0.3-9.2,1-13.5,3.8c-6.4,4.2-11.7,11.6-15.8,22.2H440.8z"/>
		<path fill="#34495E" d="M477.5,666.7c0,3.7-1,6.7-2.8,8.9c-2,2.2-5,3.3-8.8,3.3h-11.3v-4.7h10.4c5,0,7.5-2.6,7.4-7.6
			c0-4.3-0.1-11.9-0.2-22.6h5.1L477.5,666.7z M464.7,694.6h-5.1v-6.2h5.1V694.6z M474.7,694.6h-5.1v-6.2h5.1V694.6z"/>
		<path fill="#34495E" d="M519.4,678.9h-8c-2.6,0-4.8-0.9-6.7-2.7c-1.4-1.3-2.5-3-3.1-5c-0.3,7.7-2.5,14.1-6.8,19.4
			c-4.3,5.3-9.8,8.2-16.8,8.9c-0.5-0.9-1.1-2.3-2-4.3c6-0.3,11-2.9,14.9-7.6c3.7-4.5,5.5-10,5.5-16.6l-0.1-27h5.1l0.2,18.8
			c0,3.4,1.1,6.3,3.2,8.5c1.8,2,3.8,3,5.9,3h8.7V678.9z"/>
		<path fill="#34495E" d="M564.3,678.9h-46.7v-4.7h41.2c-0.1-8.2-2-14.7-5.7-19.6c-3.5-4.7-7.9-7.1-13.4-7.1
			c-4.3,0-8.5,1.1-12.7,3.4l-2-4.1c4.3-2.5,9.1-3.7,14.3-3.7c8.9,0,15.5,3.8,19.7,11.4C562.5,660.6,564.2,668.8,564.3,678.9z
			 M542.8,633.8h-5.1v-6.2h5.1V633.8z"/>
	</g>
</g>
<g>
	<g>
		<path fill="#34495E" d="M95,557.3c0,6-2.3,10.8-7,14.3c-4.7,3.5-10.9,5.3-18.6,5.3c-9.3,0-16.4-1-21.4-2.9v-5
			c5.5,2.2,12.5,3.3,21,3.3c6.2,0,11.2-1.4,14.9-4.1c3.7-2.7,5.5-6.3,5.5-10.7c0-2.7-0.6-5-1.8-6.8c-1.2-1.8-3.2-3.4-5.9-4.9
			c-2.7-1.5-6.8-3.1-12.1-4.8c-7.8-2.5-13.1-5.3-16.1-8.2c-3-2.9-4.4-6.9-4.4-11.8c0-5.4,2.2-9.8,6.7-13.2
			c4.5-3.4,10.2-5.1,17.2-5.1c7.1,0,13.9,1.3,20.1,3.8l-1.9,4.3c-6.3-2.5-12.3-3.7-18.1-3.7c-5.6,0-10.1,1.2-13.4,3.7
			c-3.3,2.5-5,5.8-5,10.1c0,2.7,0.5,4.9,1.5,6.6c1,1.7,2.7,3.2,5,4.6c2.3,1.4,6.3,3,12,4.9c5.9,1.9,10.4,3.8,13.4,5.6
			c3,1.8,5.2,3.9,6.5,6.2C94.3,551.2,95,554,95,557.3z"/>
		<path fill="#34495E" d="M132.6,576.9c-8.2,0-14.6-2.4-19.2-7.2c-4.6-4.8-6.9-11.5-6.9-20.2c0-8.5,2.2-15.4,6.7-20.5
			c4.4-5.1,10.4-7.7,17.9-7.7c6.7,0,11.9,2.2,15.8,6.6c3.8,4.4,5.8,10.4,5.8,18v3.9h-40.7c0.1,7.4,1.9,13,5.4,16.9
			c3.6,3.9,8.6,5.8,15.3,5.8c3.2,0,6.1-0.2,8.5-0.6c2.4-0.4,5.5-1.3,9.3-2.8v4.4c-3.2,1.3-6.1,2.2-8.8,2.7
			C138.9,576.6,135.9,576.9,132.6,576.9z M131.1,525.6c-5.4,0-9.8,1.7-13.1,5.1c-3.3,3.4-5.2,8.3-5.8,14.7h35
			c0-6.2-1.4-11.1-4.3-14.6C140.1,527.3,136.2,525.6,131.1,525.6z"/>
		<path fill="#34495E" d="M190.5,521.2c2.4,0,5,0.2,7.7,0.7l-1,4.7c-2.4-0.6-4.8-0.8-7.3-0.8c-4.8,0-8.8,1.9-11.9,5.8
			c-3.1,3.9-4.6,8.8-4.6,14.7v29.6h-5.1v-53.6h4.4l0.5,9.7h0.4c2.3-3.9,4.8-6.7,7.4-8.3C183.6,522,186.8,521.2,190.5,521.2z"/>
		<path fill="#34495E" d="M222.1,575.9l-21.8-53.6h5.3l14.6,36.4c1.9,4.7,3.4,8.7,4.4,12.2h0.3c1.4-4.5,2.9-8.6,4.4-12.3l14.6-36.3
			h5.3l-21.8,53.6H222.1z"/>
		<path fill="#34495E" d="M257.9,507.4c0-3.2,1.1-4.7,3.3-4.7c1.1,0,1.9,0.4,2.5,1.2c0.6,0.8,0.9,2,0.9,3.5c0,1.5-0.3,2.6-0.9,3.5
			c-0.6,0.9-1.4,1.3-2.5,1.3C259,512.2,257.9,510.6,257.9,507.4z M263.8,575.9h-5.1v-53.6h5.1V575.9z"/>
		<path fill="#34495E" d="M305.3,576.9c-8.1,0-14.4-2.4-19-7.3c-4.6-4.8-6.9-11.6-6.9-20.2c0-8.9,2.4-15.8,7.1-20.7
			c4.8-4.9,11.3-7.4,19.5-7.4c4.9,0,9.6,0.8,14,2.4l-1.4,4.3c-4.9-1.5-9.1-2.3-12.7-2.3c-6.9,0-12.2,2-15.8,6.1
			c-3.6,4.1-5.4,9.9-5.4,17.5c0,7.2,1.8,12.9,5.4,17c3.6,4.1,8.6,6.1,15,6.1c5.1,0,9.9-0.9,14.3-2.6v4.5
			C315.9,576,311.1,576.9,305.3,576.9z"/>
		<path fill="#34495E" d="M356.1,576.9c-8.2,0-14.6-2.4-19.2-7.2c-4.6-4.8-6.9-11.5-6.9-20.2c0-8.5,2.2-15.4,6.7-20.5
			c4.4-5.1,10.4-7.7,17.9-7.7c6.7,0,11.9,2.2,15.8,6.6c3.8,4.4,5.8,10.4,5.8,18v3.9h-40.7c0.1,7.4,1.9,13,5.4,16.9
			c3.6,3.9,8.6,5.8,15.3,5.8c3.2,0,6.1-0.2,8.5-0.6c2.4-0.4,5.5-1.3,9.3-2.8v4.4c-3.2,1.3-6.1,2.2-8.8,2.7
			C362.4,576.6,359.4,576.9,356.1,576.9z M354.6,525.6c-5.4,0-9.8,1.7-13.1,5.1c-3.3,3.4-5.2,8.3-5.8,14.7h35
			c0-6.2-1.4-11.1-4.3-14.6C363.6,527.3,359.7,525.6,354.6,525.6z"/>
		<path fill="#34495E" d="M395,575.9v-72.1h5.3v72.1H395z"/>
		<path fill="#34495E" d="M459.9,575.9v-34.8c0-5.4-1.2-9.3-3.6-11.8c-2.4-2.4-6.1-3.7-11.1-3.7c-6.8,0-11.7,1.6-14.9,4.9
			c-3.1,3.2-4.7,8.5-4.7,15.8v29.6h-5.1v-53.6h4.4l1,7.3h0.3c3.7-5.6,10.2-8.4,19.6-8.4c12.8,0,19.2,6.5,19.2,19.6v35.1H459.9z"/>
		<path fill="#34495E" d="M504.4,526.5H491v49.4h-5.1v-49.4h-10.5v-2.9l10.5-1.8v-4.1c0-6.6,1.3-11.4,3.8-14.5
			c2.5-3.1,6.7-4.6,12.5-4.6c3.1,0,6.2,0.4,9.4,1.3l-1.2,4.2c-2.8-0.8-5.5-1.2-8.3-1.2c-4,0-6.9,1.1-8.6,3.4
			c-1.7,2.3-2.5,5.9-2.5,11v5h13.3V526.5z"/>
		<path fill="#34495E" d="M562,549c0,8.7-2.2,15.6-6.7,20.5c-4.5,4.9-10.6,7.4-18.5,7.4c-5,0-9.3-1.1-13.1-3.4
			c-3.8-2.3-6.7-5.5-8.7-9.8c-2-4.2-3-9.1-3-14.7c0-8.7,2.2-15.6,6.7-20.4c4.5-4.9,10.6-7.3,18.4-7.3c7.8,0,13.9,2.5,18.3,7.4
			C559.8,533.6,562,540.4,562,549z M517.4,549c0,7.4,1.7,13.1,5.1,17.2c3.4,4.1,8.2,6.2,14.5,6.2c6.2,0,11.1-2.1,14.5-6.2
			c3.4-4.1,5.1-9.9,5.1-17.2c0-7.4-1.7-13.1-5.2-17.2c-3.5-4.1-8.3-6.1-14.5-6.1c-6.2,0-11.1,2-14.4,6.1
			C519.1,535.8,517.4,541.6,517.4,549z"/>
	</g>
</g>
<g>
	<g>
		<rect x="37" y="594.3" fill="#34495E" width="534.5" height="4.6"/>
	</g>
</g>
</svg>
