<?xml version="1.0" encoding="utf-8"?>
<!-- Generator: Adobe Illustrator 17.1.0, SVG Export Plug-In . SVG Version: 6.00 Build 0)  -->
<!DOCTYPE svg PUBLIC "-//W3C//DTD SVG 1.1//EN" "http://www.w3.org/Graphics/SVG/1.1/DTD/svg11.dtd">
<svg version="1.1" id="Objects" xmlns="http://www.w3.org/2000/svg" xmlns:xlink="http://www.w3.org/1999/xlink" x="0px" y="0px"
	 viewBox="0 0 1705.4 565" style="enable-background:new 0 0 1705.4 565;" xml:space="preserve">
<g>
	<g>
		<path style="fill:#34495E;" d="M701.2,428.5c0,13.5-5.9,20.2-17.9,20.2H626c-15.3,0-26.7-6.1-34.1-18.3
			c-6.1-10-9.6-23.6-10.2-40.6l-0.4-12.8h8.6l0.4,12.8c0.6,18.6,5.3,32.4,14.3,40.8c6.3,5.7,13.5,8.4,22,8.4H680
			c6.9,0,10.4-4.3,10.4-13.1c0-22,0-38.3-0.2-48.9H701C701.2,386.7,701.2,403.7,701.2,428.5z M634.7,366.5h-10.4v-12.8h10.4V366.5z
			 M655.1,366.5h-10.4v-12.8h10.4V366.5z"/>
		<path style="fill:#34495E;" d="M770.5,448.7h-24.1c-4.3,0-8.4-1.8-12.2-5.3c-4.5-4.1-6.9-9.4-6.9-16.1l-0.6-106h10.2l1,104.6
			c0,7.3,5.7,13.3,11.4,13.3h21.2V448.7z"/>
		<path style="fill:#34495E;" d="M852.9,411.8c0,23.4-11.8,37.1-31.4,36.9h-54.8v-9.6h32.2c-6.9-7.1-10.2-16.1-10.2-27.3
			c0-23,11.8-36.7,31.4-36.7c10,0,18.3,3.9,24.3,11.6C850.2,393.5,852.9,402,852.9,411.8z M842.5,412c0-9.2-2.4-16.3-6.9-21.6
			c-3.9-4.7-8.8-7.1-14.9-7.1c-6.1,0-11,2.4-14.7,7.1c-3.9,5.1-5.9,12.4-5.9,21.6c0,9.2,2.4,16.3,6.9,21.6c4.1,4.7,9,7.1,14.9,7.1
			c6.1,0,11-2.4,14.7-7.1C840.5,428.5,842.5,421.2,842.5,412z"/>
		<path style="fill:#34495E;" d="M964.6,448.7h-88.1l2.9-9.6h54.4c-0.6-14.3-3.7-26.5-9.4-36.9c-5.3-9.8-11.6-15.3-18.4-16.3v-8.8
			c9.2,1,17.1,6.3,23.7,16.1c7.7,11.2,12.2,26.5,13.1,45.9h21.8V448.7z"/>
		<path style="fill:#34495E;" d="M1076.2,448.7h-28.5H961v-9.6h84.6c-0.2-16.9-4.1-30.2-11.8-40.2c-7.3-9.6-16.3-14.5-27.5-14.5
			c-8.8,0-17.5,2.4-26.1,7.1l-4.1-8.4c8.8-5.1,18.6-7.7,29.4-7.7c16.7,0,29.4,6.5,38.3,19.6c7.3,10.8,11.4,25.5,12.8,44.2h19.6
			V448.7z M1012.6,356.1h-10.4v-12.8h10.4V356.1z"/>
		<path style="fill:#34495E;" d="M1119.8,423.6c0,7.7-2,13.7-5.7,18.3c-4.3,4.5-10.2,6.9-18.1,6.9h-23.2v-9.6h21.4
			c10.2,0,15.1-5.3,15.1-15.7c0-27.5-0.2-61.4-0.4-102.1h10.4C1119.4,348.6,1119.6,382.5,1119.8,423.6z"/>
		<path style="fill:#34495E;" d="M1156.5,448.7h-10.2l-1-127.4h10.2L1156.5,448.7z"/>
		<path style="fill:#34495E;" d="M1304.3,448.7h-21.6c-6.5,0-11.4-2.6-14.7-7.7c-2.9-4.3-4.5-9.6-4.3-15.7h-29
			c-14.7,0-22.2-8.8-22.2-26.3c0-12,3.1-21,9.2-27.1c4.7-4.9,10.4-7.5,17.3-7.5c8.4,0,16.3,3.7,23.7,11.2v-9.8h10l0.2,60.6
			c0,8.4,3.3,12.8,9.8,12.8h21.6V448.7z M1262.9,416.5l-0.2-31c-1.6-3.7-4.1-6.7-7.7-9.2c-3.9-2.7-8-4.1-12.6-4.1
			c-5.5,0-10,2.4-13.5,6.9c-3.7,5.1-5.7,12-5.7,20.8c0,11.2,4.3,16.7,13.1,16.7H1262.9z M1243.2,345.1h-10.4v-12.6h10.4V345.1z
			 M1263.8,345.1h-10.6v-12.6h10.6V345.1z"/>
		<path style="fill:#34495E;" d="M1452.2,448.7h-151.5v-9.6h19.6l-0.4-106.8h10.2l-1.6,94.6c7.7-19,17.9-33,30.4-41.4
			c8.8-5.9,17.9-8.8,27.3-8.8c1.2,0,2.4,0,3.5,0.2c24.9,2.6,38.3,23.4,40,62.2h22.4V448.7z M1420.1,439.1c-0.2-10-1.4-18.4-3.5-25.7
			c-4.9-17.5-13.9-26.7-26.7-27.7c-9.6-0.6-18.8,2-27.7,7.9c-13.1,8.6-23.9,23.7-32.4,45.5H1420.1z"/>
		<path style="fill:#34495E;" d="M1495.4,423.6c0,7.7-2,13.7-5.7,18.3c-4.1,4.5-10.2,6.9-18.1,6.9h-23.2v-9.6h21.4
			c10.2,0,15.3-5.3,15.1-15.7c0-8.8-0.2-24.3-0.4-46.3h10.4L1495.4,423.6z M1469.1,480.9h-10.4v-12.8h10.4V480.9z M1489.7,480.9
			h-10.4v-12.8h10.4V480.9z"/>
		<path style="fill:#34495E;" d="M1581.4,448.7h-16.5c-5.3,0-9.8-1.8-13.7-5.5c-2.9-2.7-5.1-6.1-6.3-10.2
			c-0.6,15.9-5.1,29-13.9,39.8c-8.8,10.8-20.2,16.9-34.5,18.3c-1-1.8-2.4-4.7-4.1-8.8c12.4-0.6,22.6-5.9,30.6-15.7
			c7.7-9.2,11.4-20.6,11.4-34.2l-0.2-55.3h10.4l0.4,38.7c0,7.1,2.2,13,6.5,17.5c3.7,4.1,7.8,6.1,12.2,6.1h17.9V448.7z"/>
		<path style="fill:#34495E;" d="M1673.6,448.7h-95.8v-9.6h84.6c-0.2-16.9-4.1-30.2-11.8-40.2c-7.3-9.6-16.3-14.5-27.5-14.5
			c-8.8,0-17.5,2.4-26.1,7.1l-4.1-8.4c8.8-5.1,18.6-7.7,29.4-7.7c18.3,0,31.8,7.8,40.4,23.4C1669.9,411.2,1673.4,427.9,1673.6,448.7
			z M1629.4,356.1H1619v-12.8h10.4V356.1z"/>
	</g>
</g>
<g>
	<g>
		<path style="fill:#34495E;" d="M679.7,201.8c0,12.2-4.7,21.8-14.2,29c-9.4,7.1-22,10.7-37.7,10.7c-18.8,0-33.2-2-43.3-5.9v-10.2
			c11.1,4.5,25.2,6.7,42.4,6.7c12.6,0,22.7-2.7,30.1-8.2c7.4-5.5,11.1-12.7,11.1-21.6c0-5.5-1.2-10.1-3.7-13.7
			c-2.5-3.6-6.5-6.9-12-9.9c-5.5-3-13.7-6.2-24.4-9.7c-15.7-5.1-26.6-10.7-32.6-16.6c-6-6-9-13.9-9-23.8c0-10.9,4.5-19.8,13.5-26.7
			c9-6.9,20.6-10.3,34.8-10.3c14.5,0,28.1,2.6,40.8,7.8l-3.9,8.8c-12.8-5.1-25-7.6-36.7-7.6c-11.4,0-20.4,2.5-27.2,7.5
			c-6.7,5-10.1,11.8-10.1,20.4c0,5.4,1,9.8,3.1,13.3c2.1,3.5,5.5,6.6,10.2,9.3c4.7,2.8,12.8,6.1,24.2,9.9c12,3.9,21,7.7,27.1,11.4
			c6,3.7,10.4,7.9,13.2,12.6C678.3,189.5,679.7,195.2,679.7,201.8z"/>
		<path style="fill:#34495E;" d="M755.9,241.5c-16.6,0-29.6-4.9-38.9-14.6c-9.3-9.7-14-23.3-14-40.8c0-17.3,4.5-31.2,13.5-41.6
			c9-10.4,21.1-15.6,36.3-15.6c13.5,0,24.1,4.5,31.9,13.4c7.8,8.9,11.7,21,11.7,36.4v8H714c0.1,14.9,3.8,26.3,11,34.2
			c7.2,7.9,17.5,11.8,30.9,11.8c6.5,0,12.3-0.4,17.2-1.3c5-0.9,11.2-2.7,18.8-5.6v9c-6.5,2.7-12.4,4.5-17.9,5.4
			C768.5,241,762.5,241.5,755.9,241.5z M752.8,137.6c-11,0-19.9,3.4-26.5,10.3c-6.7,6.9-10.6,16.8-11.7,29.8h70.8
			c0-12.6-2.9-22.4-8.6-29.5C771,141.2,763,137.6,752.8,137.6z"/>
		<path style="fill:#34495E;" d="M873.1,128.8c4.8,0,10,0.5,15.6,1.4l-2,9.5c-4.8-1.1-9.7-1.7-14.9-1.7c-9.8,0-17.8,3.9-24,11.8
			c-6.3,7.9-9.4,17.8-9.4,29.8v59.9H828V130.9h8.8l1.1,19.6h0.7c4.7-8,9.7-13.6,15.1-16.8C859.1,130.5,865.5,128.8,873.1,128.8z"/>
		<path style="fill:#34495E;" d="M937,239.5l-44.2-108.6h10.7l29.6,73.8c3.9,9.5,6.9,17.7,8.8,24.8h0.6c2.9-9.1,5.8-17.4,8.8-25
			l29.6-73.6h10.7l-44.2,108.6H937z"/>
		<path style="fill:#34495E;" d="M1009.5,100.8c0-6.4,2.2-9.6,6.6-9.6c2.2,0,3.9,0.8,5.1,2.5c1.2,1.7,1.8,4,1.8,7.1
			c0,3-0.6,5.4-1.8,7.1c-1.2,1.7-2.9,2.6-5.1,2.6C1011.7,110.5,1009.5,107.2,1009.5,100.8z M1021.4,239.5H1011V130.9h10.4V239.5z"/>
		<path style="fill:#34495E;" d="M1105.5,241.5c-16.4,0-29.2-4.9-38.4-14.7c-9.3-9.8-13.9-23.4-13.9-40.9c0-18,4.8-32,14.4-42
			c9.6-10,22.8-15,39.5-15c9.9,0,19.4,1.6,28.4,4.9l-2.8,8.8c-9.9-3.1-18.5-4.7-25.8-4.7c-14,0-24.7,4.1-31.9,12.3
			c-7.2,8.2-10.8,20.1-10.8,35.5c0,14.6,3.6,26.1,10.8,34.4c7.2,8.3,17.3,12.4,30.3,12.4c10.4,0,20-1.8,29-5.3v9.2
			C1126.9,239.8,1117.3,241.5,1105.5,241.5z"/>
		<path style="fill:#34495E;" d="M1208.5,241.5c-16.6,0-29.6-4.9-38.9-14.6c-9.3-9.7-14-23.3-14-40.8c0-17.3,4.5-31.2,13.5-41.6
			c9-10.4,21.1-15.6,36.3-15.6c13.5,0,24.1,4.5,31.9,13.4c7.8,8.9,11.7,21,11.7,36.4v8h-82.5c0.1,14.9,3.8,26.3,11,34.2
			c7.2,7.9,17.5,11.8,30.9,11.8c6.5,0,12.3-0.4,17.2-1.3c5-0.9,11.2-2.7,18.8-5.6v9c-6.5,2.7-12.4,4.5-17.9,5.4
			C1221.1,241,1215.1,241.5,1208.5,241.5z M1205.4,137.6c-11,0-19.9,3.4-26.5,10.3c-6.7,6.9-10.6,16.8-11.7,29.8h70.8
			c0-12.6-2.9-22.4-8.6-29.5C1223.6,141.2,1215.6,137.6,1205.4,137.6z"/>
		<path style="fill:#34495E;" d="M1339.3,239.5v-146h10.7v146H1339.3z"/>
		<path style="fill:#34495E;" d="M1470.8,239.5v-70.4c0-10.9-2.4-18.9-7.3-23.8c-4.8-5-12.4-7.4-22.5-7.4c-13.7,0-23.7,3.3-30.1,9.8
			c-6.4,6.6-9.5,17.2-9.5,31.9v59.9H1391V130.9h8.8l2,14.9h0.6c7.4-11.3,20.7-17,39.7-17c26,0,39,13.2,39,39.6v71H1470.8z"/>
		<path style="fill:#34495E;" d="M1560.8,139.5h-27v100h-10.4v-100h-21.3v-5.8l21.3-3.7v-8.4c0-13.3,2.6-23.1,7.7-29.3
			c5.2-6.2,13.6-9.3,25.3-9.3c6.3,0,12.6,0.9,19,2.7l-2.4,8.6c-5.6-1.7-11.2-2.5-16.7-2.5c-8.1,0-13.9,2.3-17.3,6.8
			c-3.4,4.6-5.1,12-5.1,22.2v10.1h27V139.5z"/>
		<path style="fill:#34495E;" d="M1677.6,185.1c0,17.7-4.5,31.5-13.6,41.5c-9.1,10-21.6,14.9-37.5,14.9c-10,0-18.9-2.3-26.5-6.9
			c-7.7-4.6-13.5-11.2-17.6-19.8c-4.1-8.6-6.1-18.5-6.1-29.8c0-17.7,4.5-31.5,13.6-41.4c9.1-9.9,21.5-14.8,37.3-14.8
			c15.7,0,28.1,5,37,15C1673.1,153.9,1677.6,167.6,1677.6,185.1z M1587.2,185.1c0,14.9,3.5,26.6,10.4,34.9
			c6.9,8.4,16.7,12.5,29.3,12.5s22.4-4.2,29.3-12.5c6.9-8.4,10.4-20,10.4-34.9c0-15-3.5-26.6-10.5-34.9c-7-8.3-16.8-12.4-29.4-12.4
			c-12.6,0-22.4,4.1-29.2,12.3C1590.6,158.4,1587.2,170,1587.2,185.1z"/>
	</g>
</g>
<g>
	<g>
		<rect x="562.2" y="276.9" style="fill:#34495E;" width="1134.2" height="9.4"/>
	</g>
</g>
<path style="fill:#E74C3C;" d="M215.8,3C98.5,3,3,96.6,3,211.9C3,354,215.8,560.1,215.8,560.1S428.5,354,428.5,211.9
	C428.5,96.6,333,3,215.8,3z M215.8,3C215.7,3,215.7,3,215.8,3C215.8,3,215.8,3,215.8,3z"/>
<g>
	<path style="fill:#E74C3C;" d="M428.5,211.9C428.5,96.6,333,3,215.8,3c-0.1,0,0.1,0,0,0v557.1C215.8,560.1,428.5,354,428.5,211.9"
		/>
	<path style="fill:#C0392B;" d="M3,211.9C3,96.6,98.5,3,215.8,3c0.1,0-0.1,0,0,0v557.1C215.8,560.1,3,354,3,211.9"/>
</g>
<g>
	<path style="fill:#F1C40F;" d="M215.7,65.8c79.6,0,144.1,64.5,144.1,144.1S295.3,354,215.7,354V65.8z"/>
	<path style="fill:#F39C12;" d="M215.8,65.8c-79.6,0-144.1,64.5-144.1,144.1S136.3,354,215.8,354V65.8z"/>
</g>
<g>
	<path style="fill:#FFFFFF;" d="M215.7,90.1c66.1,0,119.8,53.6,119.8,119.8s-53.6,119.8-119.8,119.8V90.1z"/>
	<path style="fill:#F3F0EF;" d="M215.8,90.1c-66.1,0-119.8,53.6-119.8,119.8s53.6,119.8,119.8,119.8V90.1z"/>
</g>
<polygon style="fill:#34495E;" points="288.2,241.4 240.4,193.7 288.2,193.7 288.2,136.6 200.3,136.6 143.3,136.6 143.3,193.7 
	143.3,281.5 200.3,281.5 200.3,234.2 247.9,281.7 288.1,281.5 "/>
</svg>
