<?xml version="1.0" encoding="utf-8"?>
<!-- Generator: Adobe Illustrator 17.1.0, SVG Export Plug-In . SVG Version: 6.00 Build 0)  -->
<!DOCTYPE svg PUBLIC "-//W3C//DTD SVG 1.1//EN" "http://www.w3.org/Graphics/SVG/1.1/DTD/svg11.dtd">
<svg version="1.1" id="Layer_1" xmlns="http://www.w3.org/2000/svg" xmlns:xlink="http://www.w3.org/1999/xlink" x="0px" y="0px"
	 viewBox="1500 801.1 400 400" enable-background="new 1500 801.1 400 400" xml:space="preserve">
<path fill="#FFFFFF" d="M1700,803.4c-108.1,0-196.6,88.5-196.6,196.6s88.5,196.6,196.6,196.6s196.6-88.5,196.6-196.6
	S1808.1,803.4,1700,803.4z M1591.3,917.9h217.3c2.1,0,3,2.6,1.4,3.9l-108.8,91.4c-0.8,0.6-1.9,0.6-2.6,0l-108.8-91.4
	C1588.3,920.5,1589.3,917.9,1591.3,917.9z M1811.9,1078.7c0,1.9-1.6,3.5-3.5,3.5h-216.7c-1.9,0-3.5-1.6-3.5-3.5V936.2
	c0-1.9,2.2-2.9,3.6-1.7l106.8,89.7c0.8,0.7,2,0.7,2.8,0l106.8-89.7c1.4-1.2,3.6-0.2,3.6,1.7V1078.7z"/>
</svg>
