<?xml version="1.0" encoding="utf-8"?>
<!-- Generator: Adobe Illustrator 17.1.0, SVG Export Plug-In . SVG Version: 6.00 Build 0)  -->
<!DOCTYPE svg PUBLIC "-//W3C//DTD SVG 1.1//EN" "http://www.w3.org/Graphics/SVG/1.1/DTD/svg11.dtd">
<svg version="1.1" id="Layer_1" xmlns="http://www.w3.org/2000/svg" xmlns:xlink="http://www.w3.org/1999/xlink" x="0px" y="0px"
	 viewBox="0 0 300 600" enable-background="new 0 0 300 600" xml:space="preserve">
<g>
	<defs>
		<rect id="SVGID_1_" x="-42.8" y="-1.3" width="598.6" height="601.9"/>
	</defs>
	<clipPath id="SVGID_2_">
		<use xlink:href="#SVGID_1_"  overflow="visible"/>
	</clipPath>
	<g clip-path="url(#SVGID_2_)">
		<g>
			<line fill="none" stroke="#FFFFFF" stroke-width="3" stroke-miterlimit="10" x1="24.7" y1="616.9" x2="470" y2="-45.9"/>
			<line fill="none" stroke="#FFFFFF" stroke-width="3" stroke-miterlimit="10" x1="-47.9" y1="531.7" x2="121.7" y2="279.3"/>
			<line fill="none" stroke="#FFFFFF" stroke-width="3" stroke-miterlimit="10" x1="304" y1="350.3" x2="528.9" y2="15.7"/>
			<line fill="none" stroke="#FFFFFF" stroke-width="3" stroke-miterlimit="10" x1="253.1" y1="644.2" x2="253.1" y2="-54.9"/>
			<line fill="none" stroke="#FFFFFF" stroke-width="3" stroke-miterlimit="10" x1="254.1" y1="255.8" x2="-48.6" y2="231.6"/>
			<path fill="none" stroke="#FFFFFF" stroke-width="3" stroke-miterlimit="10" d="M310.5,340.8c-18,30.2-50.1,50.4-86.7,50.4
				c-56.4,0-102.1-47.8-102.1-106.8V-44.6"/>
			<line fill="none" stroke="#FFFFFF" stroke-width="3" stroke-miterlimit="10" x1="363.7" y1="112.3" x2="254.1" y2="77.2"/>
			<polyline fill="none" stroke="#FFFFFF" stroke-width="3" stroke-miterlimit="10" points="-49.6,33.8 123,45.9 253.1,48 
				333.1,29.8 470.3,102.9 499.9,151.9 554.9,191.2 			"/>
			<polyline fill="none" stroke="#FFFFFF" stroke-width="3" stroke-miterlimit="10" points="312.1,95.8 333.1,29.8 376.5,-35.8 			
				"/>
			<line fill="none" stroke="#FFFFFF" stroke-width="3" stroke-miterlimit="10" x1="252.7" y1="524.1" x2="560.6" y2="56"/>
			<polyline fill="none" stroke="#FFFFFF" stroke-width="3" stroke-miterlimit="10" points="36.9,238.4 39.1,114.5 -48.6,106.5 			
				"/>
			<line fill="none" stroke="#FFFFFF" stroke-width="3" stroke-miterlimit="10" x1="-2.3" y1="37.2" x2="-2.3" y2="-37"/>
			<path fill="none" stroke="#FFFFFF" stroke-width="3" stroke-miterlimit="10" d="M182.5,382c0,0,70.6,26.1,70.6,70.5"/>
		</g>
		<path fill="none" stroke="#FFFFFF" stroke-width="3" stroke-miterlimit="10" d="M74.6,349.5c0,0,30.4-60.4,67.3-1.4"/>
	</g>
</g>
</svg>
