<?xml version="1.0" encoding="utf-8"?>
<!-- Generator: Adobe Illustrator 17.1.0, SVG Export Plug-In . SVG Version: 6.00 Build 0)  -->
<!DOCTYPE svg PUBLIC "-//W3C//DTD SVG 1.1//EN" "http://www.w3.org/Graphics/SVG/1.1/DTD/svg11.dtd">
<svg version="1.1" id="Layer_1" xmlns="http://www.w3.org/2000/svg" xmlns:xlink="http://www.w3.org/1999/xlink" x="0px" y="0px"
	 viewBox="335.7 0 199.5 200" enable-background="new 335.7 0 199.5 200" xml:space="preserve">
<g>
	<g>
		<defs>
			<rect id="SVGID_1_" x="336.1" y="-0.4" width="199.5" height="200.6"/>
		</defs>
		<clipPath id="SVGID_2_">
			<use xlink:href="#SVGID_1_"  overflow="visible"/>
		</clipPath>
		<g clip-path="url(#SVGID_2_)">
			<g>
				<line fill="none" stroke="#FFFFFF" stroke-width="3" stroke-miterlimit="10" x1="358.6" y1="205.6" x2="507" y2="-15.3"/>
				<line fill="none" stroke="#FFFFFF" stroke-width="3" stroke-miterlimit="10" x1="334.4" y1="177.2" x2="390.9" y2="93.1"/>
				<line fill="none" stroke="#FFFFFF" stroke-width="3" stroke-miterlimit="10" x1="451.7" y1="116.8" x2="526.7" y2="5.2"/>
				<line fill="none" stroke="#FFFFFF" stroke-width="3" stroke-miterlimit="10" x1="434.7" y1="214.7" x2="434.7" y2="-18.3"/>
				<line fill="none" stroke="#FFFFFF" stroke-width="3" stroke-miterlimit="10" x1="435.1" y1="85.3" x2="334.2" y2="77.2"/>
				<path fill="none" stroke="#FFFFFF" stroke-width="3" stroke-miterlimit="10" d="M453.9,113.6c-6,10.1-16.7,16.8-28.9,16.8
					c-18.8,0-34-15.9-34-35.6V-14.9"/>
				<line fill="none" stroke="#FFFFFF" stroke-width="3" stroke-miterlimit="10" x1="471.6" y1="37.4" x2="435.1" y2="25.7"/>
				<polyline fill="none" stroke="#FFFFFF" stroke-width="3" stroke-miterlimit="10" points="333.8,11.3 391.4,15.3 434.7,16 
					461.4,9.9 507.1,34.3 517,50.6 535.3,63.7 				"/>
				<polyline fill="none" stroke="#FFFFFF" stroke-width="3" stroke-miterlimit="10" points="454.4,31.9 461.4,9.9 475.9,-11.9 				
					"/>
				<line fill="none" stroke="#FFFFFF" stroke-width="3" stroke-miterlimit="10" x1="434.6" y1="174.7" x2="537.2" y2="18.7"/>
				<polyline fill="none" stroke="#FFFFFF" stroke-width="3" stroke-miterlimit="10" points="362.7,79.5 363.4,38.2 334.2,35.5 				
					"/>
				<line fill="none" stroke="#FFFFFF" stroke-width="3" stroke-miterlimit="10" x1="349.6" y1="12.4" x2="349.6" y2="-12.3"/>
				<path fill="none" stroke="#FFFFFF" stroke-width="3" stroke-miterlimit="10" d="M411.2,127.3c0,0,23.5,8.7,23.5,23.5"/>
			</g>
			<path fill="none" stroke="#FFFFFF" stroke-width="3" stroke-miterlimit="10" d="M375.2,116.5c0,0,10.1-20.1,22.4-0.5"/>
		</g>
	</g>
</g>
</svg>
