<?xml version="1.0" encoding="utf-8"?>
<!-- Generator: Adobe Illustrator 17.1.0, SVG Export Plug-In . SVG Version: 6.00 Build 0)  -->
<!DOCTYPE svg PUBLIC "-//W3C//DTD SVG 1.1//EN" "http://www.w3.org/Graphics/SVG/1.1/DTD/svg11.dtd">
<svg version="1.1" id="Layer_1" xmlns="http://www.w3.org/2000/svg" xmlns:xlink="http://www.w3.org/1999/xlink" x="0px" y="0px"
	 viewBox="0 0 200 200" enable-background="new 0 0 200 200" xml:space="preserve">
<radialGradient id="SVGID_1_" cx="100.2" cy="99.6424" r="100.0626" gradientTransform="matrix(1 0 0 1.5 0 -49.8212)" gradientUnits="userSpaceOnUse">
	<stop  offset="0" style="stop-color:#1B415A"/>
	<stop  offset="0.4882" style="stop-color:#13384E"/>
	<stop  offset="1" style="stop-color:#0F3348"/>
</radialGradient>
<rect x="0.4" y="-0.7" fill="url(#SVGID_1_)" width="199.5" height="200.7"/>
<g opacity="4.000000e-02">
	<defs>
		<rect id="SVGID_2_" x="0" y="0.3" opacity="4.000000e-02" width="199.9" height="199.7"/>
	</defs>
	<clipPath id="SVGID_3_">
		<use xlink:href="#SVGID_2_"  overflow="visible"/>
	</clipPath>
	<rect x="2.8" y="-2.5" clip-path="url(#SVGID_3_)" fill="none" width="200.9" height="204.1"/>
	<g clip-path="url(#SVGID_3_)">
		<g>
			<line fill="none" stroke="#FFFFFF" stroke-width="2" stroke-miterlimit="10" x1="27.4" y1="205.2" x2="175.5" y2="-5.4"/>
			<line fill="none" stroke="#FFFFFF" stroke-width="2" stroke-miterlimit="10" x1="-6" y1="190.3" x2="59.7" y2="97.9"/>
			<line fill="none" stroke="#FFFFFF" stroke-width="2" stroke-miterlimit="10" x1="120.3" y1="120.5" x2="204" y2="2.3"/>
			<line fill="none" stroke="#FFFFFF" stroke-width="2" stroke-miterlimit="10" x1="103.4" y1="213.8" x2="103.4" y2="-8.2"/>
			<line fill="none" stroke="#FFFFFF" stroke-width="2" stroke-miterlimit="10" x1="103.7" y1="90.5" x2="-14" y2="81"/>
			<path fill="none" stroke="#FFFFFF" stroke-width="2" stroke-miterlimit="10" d="M122.4,117.4c-6,9.6-16.7,16-28.8,16
				c-18.7,0-33.9-15.2-33.9-33.9V-4.9"/>
			<line fill="none" stroke="#FFFFFF" stroke-width="2" stroke-miterlimit="10" x1="140.1" y1="44.9" x2="103.7" y2="33.7"/>
			<polyline fill="none" stroke="#FFFFFF" stroke-width="2" stroke-miterlimit="10" points="-8,20 60.1,23.8 103.4,24.4 130,18.7 
				175.5,41.9 185.4,57.4 203.7,69.9 			"/>
			<polyline fill="none" stroke="#FFFFFF" stroke-width="2" stroke-miterlimit="10" points="123,39.6 130,18.7 144.4,-2.1 			"/>
			<line fill="none" stroke="#FFFFFF" stroke-width="2" stroke-miterlimit="10" x1="103.2" y1="175.7" x2="205.6" y2="27"/>
			<polyline fill="none" stroke="#FFFFFF" stroke-width="2" stroke-miterlimit="10" points="31.5,84.9 32.2,45.6 -7,43 			"/>
			<line fill="none" stroke="#FFFFFF" stroke-width="2" stroke-miterlimit="10" x1="18.5" y1="21" x2="18.5" y2="-2.5"/>
			<path fill="none" stroke="#FFFFFF" stroke-width="2" stroke-miterlimit="10" d="M79.9,130.5c0,0,23.5,8.3,23.5,22.4"/>
		</g>
		<path fill="none" stroke="#FFFFFF" stroke-width="2" stroke-miterlimit="10" d="M44,120.2c0,0,10.1-19.2,22.4-0.4"/>
	</g>
</g>
</svg>
