<?xml version="1.0" encoding="utf-8"?>
<!-- Generator: Adobe Illustrator 17.1.0, SVG Export Plug-In . SVG Version: 6.00 Build 0)  -->
<!DOCTYPE svg PUBLIC "-//W3C//DTD SVG 1.1//EN" "http://www.w3.org/Graphics/SVG/1.1/DTD/svg11.dtd">
<svg version="1.1" id="Layer_1" xmlns="http://www.w3.org/2000/svg" xmlns:xlink="http://www.w3.org/1999/xlink" x="0px" y="0px"
	 viewBox="0 0 72 71.8" enable-background="new 0 0 72 71.8" xml:space="preserve">
<path fill="#343538" d="M50.7,25.3c0,13.9-11.3,25.2-25.2,25.2S0.2,39.2,0.2,25.3S11.5,0,25.4,0S50.7,11.3,50.7,25.3z M25.4,4
	C13.7,4,4.1,13.5,4.1,25.3s9.5,21.3,21.3,21.3S46.7,37,46.7,25.3S37.2,4,25.4,4z"/>
<path fill="#343538" d="M70.5,70.2L70.5,70.2c-1.7,1.7-4.2,1.7-5.8,0.1L39,44.6l5.8-5.8l25.6,25.6C72.1,66,72.1,68.6,70.5,70.2z"/>
</svg>
