<?xml version="1.0" encoding="utf-8"?>
<!-- Generator: Adobe Illustrator 17.1.0, SVG Export Plug-In . SVG Version: 6.00 Build 0)  -->
<!DOCTYPE svg PUBLIC "-//W3C//DTD SVG 1.1//EN" "http://www.w3.org/Graphics/SVG/1.1/DTD/svg11.dtd">
<svg version="1.1" id="Layer_1" xmlns="http://www.w3.org/2000/svg" xmlns:xlink="http://www.w3.org/1999/xlink" x="0px" y="0px"
	 viewBox="-24 801.1 400 400" enable-background="new -24 801.1 400 400" xml:space="preserve">
<path fill="#FFFFFF" d="M176,803.4c-108.1,0-196.6,88.5-196.6,196.6s88.5,196.6,196.6,196.6s196.6-88.5,196.6-196.6
	S284.1,803.4,176,803.4z M268.9,954.9c0.1,1.9,0.1,4,0.1,5.9c0,59.9-45.6,129-129,129c-25.6,0-49.4-7.5-69.5-20.4
	c3.6,0.4,7.2,0.6,10.8,0.6c21.2,0,40.7-7.2,56.3-19.4c-19.9-0.4-36.6-13.5-42.3-31.5c2.8,0.5,5.6,0.8,8.5,0.8
	c4.1,0,8.1-0.5,11.9-1.6c-20.7-4.1-36.3-22.5-36.3-44.4v-0.5c6.1,3.4,13.1,5.4,20.5,5.7c-12.2-8.1-20.1-22-20.1-37.7
	c0-8.4,2.2-16.1,6.1-22.8c22.4,27.5,55.7,45.5,93.4,47.4c-0.8-3.3-1.2-6.7-1.2-10.3c0-25,20.3-45.3,45.3-45.3
	c13,0,24.8,5.5,33.1,14.3c10.4-2,20.1-5.7,28.8-11c-3.4,10.6-10.6,19.5-19.9,25.1c9.2-1.1,17.9-3.6,26-7.2
	C285.5,940.7,277.8,948.7,268.9,954.9z"/>
</svg>
